<svg width="589" height="589" viewBox="0 0 589 589" fill="none" xmlns="http://www.w3.org/2000/svg">
<path d="M273.749 65.0483C270.491 71.7182 268.397 78.9311 267.001 85.6786C173.156 97.8552 100.484 169.053 84.3519 257.624C78.6902 254.91 72.951 251.497 67.8321 247.386C57.2067 238.7 56.1209 232.03 48.5977 230.324C40.8419 228.54 36.964 234.667 22.3056 239.165C16.256 241.027 10.129 242.035 4.46729 242.655C26.8815 117.012 129.801 16.4972 262.037 1.83875C264.131 6.64732 266.691 11.611 269.793 16.2645C278.945 30.0697 286.701 32.3189 287.011 40.7727C287.321 48.8387 280.263 51.7859 273.749 65.0483Z" fill="#3D2981"/>
<path d="M75.9835 138.324C77.5651 136.157 79.3784 134.581 81.4191 133.6C83.4519 132.622 85.5671 132.253 87.7687 132.497C89.9582 132.745 92.0686 133.604 94.0958 135.079C96.0906 136.546 97.5404 138.297 98.4452 140.327C99.3582 142.361 99.6467 144.505 99.3067 146.761C98.9747 149.008 98.0277 151.201 96.4698 153.335L90.8384 161.003L70.3521 145.992L75.9835 138.324ZM91.8998 150.482C93.2797 148.586 93.8362 146.735 93.5732 144.929C93.3184 143.123 92.2508 141.532 90.3786 140.148C88.4822 138.768 86.6272 138.219 84.8097 138.507C82.9961 138.786 81.3973 139.87 80.0134 141.766L78.2731 144.121L90.1595 152.837L91.8998 150.482Z" fill="#FBF5FF"/>
<path d="M113.071 126.027L106.734 133.076L109.062 137.208L104.727 142.044L91.9714 118.233L96.7511 112.905L121.798 123.028L117.431 127.897L113.071 126.027ZM108.449 124.032L99.4195 120.167L104.273 128.687L108.449 124.032Z" fill="#FBF5FF"/>
<path d="M112.915 96.7374C114.891 94.9285 116.973 93.7441 119.161 93.1801C121.35 92.6203 123.492 92.6752 125.596 93.3529C127.707 94.0224 129.61 95.285 131.312 97.1407C132.977 98.9686 134.055 100.967 134.542 103.133C135.037 105.303 134.901 107.458 134.127 109.604C133.361 111.741 132.002 113.702 130.051 115.486L123.027 121.916L105.891 103.167L112.915 96.7374ZM126.13 111.799C127.859 110.212 128.777 108.509 128.878 106.697C128.986 104.878 128.255 103.104 126.676 101.383C125.085 99.6431 123.37 98.733 121.527 98.6532C119.695 98.5772 117.914 99.3326 116.181 100.919L114.031 102.893L123.98 113.772L126.13 111.799Z" fill="#FBF5FF"/>
<path d="M151.454 98.0799C149.537 99.5 147.442 100.365 145.176 100.668C142.918 100.962 140.724 100.658 138.601 99.7541C136.477 98.8505 134.677 97.4004 133.199 95.3958C131.725 93.4153 130.867 91.2797 130.625 88.9888C130.374 86.6981 130.723 84.5109 131.668 82.4275C132.605 80.3442 134.031 78.5925 135.948 77.1723C137.865 75.7522 139.952 74.895 142.21 74.6006C144.467 74.3063 146.646 74.6192 148.753 75.5312C150.856 76.4351 152.644 77.8773 154.122 79.8577C155.596 81.8624 156.466 84.006 156.729 86.2965C156.991 88.587 156.654 90.7699 155.718 92.8411C154.789 94.9162 153.37 96.6597 151.454 98.0799ZM148.085 93.5439C149.714 92.3343 150.615 90.8293 150.793 89.0246C150.966 87.212 150.396 85.4111 149.075 83.6222C147.73 81.8336 146.169 80.7594 144.386 80.3999C142.611 80.0402 140.913 80.467 139.284 81.6766C137.635 82.8985 136.721 84.4118 136.544 86.2124C136.358 88.0051 136.94 89.8058 138.294 91.6144C139.64 93.4272 141.188 94.5056 142.951 94.8534C144.722 95.2051 146.432 94.7659 148.085 93.5439Z" fill="#FBF5FF"/>
<path d="M171.804 84.4464C170.203 85.4091 168.617 86.016 167.049 86.2671C165.478 86.5101 164.012 86.3475 162.646 85.7874C161.292 85.2271 160.158 84.2553 159.239 82.868L164.889 79.4495C165.45 80.1961 166.092 80.6424 166.817 80.7925C167.551 80.9344 168.303 80.769 169.072 80.3043C169.848 79.8315 170.356 79.274 170.597 78.6318C170.833 77.9938 170.758 77.3607 170.372 76.7285C170.049 76.1963 169.603 75.864 169.032 75.7317C168.456 75.5914 167.837 75.5648 167.172 75.6481C166.503 75.7354 165.597 75.9316 164.45 76.2406C162.784 76.6549 161.382 76.9155 160.229 77.0186C159.079 77.1257 157.933 76.9419 156.794 76.4751C155.647 76.0085 154.655 75.0991 153.826 73.7427C152.61 71.7177 152.384 69.6892 153.148 67.6611C153.915 65.6249 155.472 63.8914 157.816 62.4644C160.217 61.0164 162.495 60.4269 164.656 60.6916C166.826 60.9481 168.577 62.0757 169.913 64.0665L164.199 67.5183C163.711 66.8473 163.107 66.461 162.387 66.3512C161.674 66.2332 160.949 66.3982 160.213 66.8381C159.573 67.228 159.16 67.7072 158.975 68.2798C158.782 68.8565 158.877 69.461 159.263 70.1013C159.694 70.8176 160.362 71.1747 161.267 71.1684C162.16 71.1543 163.445 70.948 165.119 70.5418C166.802 70.1596 168.216 69.923 169.358 69.8282C170.496 69.7374 171.638 69.9132 172.776 70.3558C173.914 70.7902 174.873 71.6597 175.662 72.9602C176.413 74.2007 176.785 75.5199 176.775 76.9179C176.765 78.3078 176.338 79.668 175.498 80.9943C174.655 82.3126 173.424 83.4633 171.804 84.4464Z" fill="#FBF5FF"/>
<path d="M560.17 167.269C556.059 171.302 551.871 176.033 548.304 181.462C539.695 194.492 540.548 202.481 533.335 205.505C526.432 208.453 521.391 202.791 507.663 201.085C500.373 200.154 493.005 200.619 486.412 201.705C448.874 125.776 366.74 76.7595 276.23 84.6704C273.128 84.9031 270.026 85.2909 267.001 85.6787C268.397 78.8536 270.491 71.6407 273.748 65.0483C280.263 51.786 287.243 48.8388 287.011 40.7728C286.701 32.319 278.945 30.0698 269.793 16.2645C266.691 11.5335 264.131 6.64736 262.037 1.83878C264.286 1.60611 266.613 1.37343 268.94 1.14075C394.661 -9.87244 508.749 59.8519 560.17 167.269Z" fill="#3413A5"/>
<path d="M356.322 32.5972L351.593 57.5562L345.502 56.3965L348.349 41.4276L339.911 55.3413L335.013 54.4098L332.237 38.3369L329.389 53.338L323.315 52.1947L328.044 27.2356L335.214 28.5896L338.969 47.1985L349.152 31.2431L356.322 32.5972Z" fill="#FBF5FF"/>
<path d="M365.929 62.3135C363.645 61.5877 361.716 60.3947 360.15 58.7345C358.591 57.0866 357.555 55.1356 357.04 52.8855C356.533 50.6397 356.657 48.3226 357.405 45.9424C358.152 43.5865 359.377 41.6378 361.081 40.1004C362.794 38.5551 364.764 37.5551 366.993 37.1044C369.23 36.6458 371.491 36.7773 373.774 37.4991C376.046 38.2125 377.963 39.4013 379.521 41.0614C381.088 42.7256 382.12 44.6725 382.615 46.9101C383.118 49.1478 382.998 51.4488 382.251 53.8047C381.504 56.1849 380.27 58.1496 378.557 59.695C376.853 61.2404 374.886 62.2405 372.662 62.6912C370.445 63.1502 368.2 63.0269 365.929 62.3135ZM367.643 56.9262C369.573 57.5375 371.321 57.3865 372.886 56.4732C374.46 55.5519 375.582 54.0258 376.253 51.903C376.919 49.7721 376.872 47.8806 376.113 46.2288C375.363 44.5811 374.023 43.4497 372.093 42.8384C370.131 42.2185 368.367 42.3612 366.802 43.2745C365.237 44.1797 364.114 45.7058 363.435 47.8608C362.756 50.0077 362.796 51.899 363.558 53.5348C364.317 55.1745 365.681 56.3063 367.643 56.9262Z" fill="#FBF5FF"/>
<path d="M399.323 47.4074C401.771 48.4791 403.701 49.8983 405.108 51.6651C406.523 53.432 407.349 55.4162 407.586 57.6175C407.831 59.819 407.453 62.0715 406.448 64.371C405.452 66.6384 404.067 68.4392 402.294 69.7694C400.516 71.0997 398.488 71.8483 396.215 72.0196C393.95 72.1869 391.602 71.7429 389.174 70.6836L380.441 66.8817L390.59 43.6054L399.323 47.4074ZM390.948 65.6043C393.1 66.5422 395.024 66.6888 396.727 66.0483C398.426 65.3956 399.748 64.0018 400.686 61.8589C401.623 59.7078 401.754 57.7787 401.081 56.0636C400.405 54.3403 398.995 53.0098 396.844 52.0719L394.163 50.8997L388.268 64.4321L390.948 65.6043Z" fill="#FBF5FF"/>
<path d="M418.724 62.2744L416.263 66.7776L423.539 70.7512L421.245 74.9499L413.969 70.9764L411.309 75.8644L419.53 80.3534L417.152 84.7124L403.498 77.2638L415.668 54.9719L429.323 62.4205L426.945 66.7634L418.724 62.2744Z" fill="#FBF5FF"/>
<path d="M427.679 85.698L434.496 90.0685L431.913 94.1013L419.879 86.3866L433.587 65.007L438.804 68.3511L427.679 85.698Z" fill="#FBF5FF"/>
<path d="M448.905 101.212L441.382 95.441L437.448 98.0794L432.305 94.1224L455.07 79.5715L460.74 83.9245L452.573 109.687L447.382 105.697L448.905 101.212ZM450.546 96.4539L453.71 87.162L445.578 92.6449L450.546 96.4539Z" fill="#FBF5FF"/>
<path d="M477.941 109.781C478.182 108.847 478.139 107.925 477.822 107.016C477.513 106.098 476.936 105.241 476.1 104.452C474.642 103.072 473.028 102.446 471.248 102.568C469.469 102.694 467.823 103.55 466.312 105.143C464.703 106.843 463.904 108.604 463.921 110.423C463.933 112.241 464.744 113.918 466.348 115.453C467.452 116.492 468.65 117.092 469.941 117.253C471.231 117.423 472.56 117.148 473.929 116.426L468.226 111.038L471.347 107.724L481.111 116.972L477.153 121.145C475.759 121.94 474.208 122.445 472.492 122.657C470.784 122.878 469.037 122.701 467.248 122.125C465.467 121.556 463.806 120.545 462.269 119.091C460.441 117.358 459.194 115.416 458.528 113.265C457.858 111.122 457.794 108.967 458.336 106.798C458.875 104.621 460.004 102.622 461.725 100.806C463.453 98.9824 465.396 97.7355 467.551 97.0655C469.715 96.3876 471.881 96.3319 474.05 96.8903C476.215 97.4405 478.209 98.582 480.025 100.311C482.232 102.393 483.586 104.688 484.089 107.192C484.588 109.688 484.192 112.114 482.895 114.478L477.941 109.781Z" fill="#FBF5FF"/>
<path d="M492.208 120.397L488.342 123.796L493.806 130.02L490.219 133.181L484.755 126.957L480.562 130.641L486.74 137.669L483.022 140.941L472.745 129.261L491.812 112.489L502.089 124.168L498.387 127.424L492.208 120.397Z" fill="#FBF5FF"/>
<path d="M522.438 151.634L501.77 166.395L498.178 161.363L510.579 152.503L494.872 156.739L491.977 152.671L501.088 139.139L488.655 148.014L485.047 142.982L505.715 128.221L509.971 134.169L499.82 150.189L518.214 145.704L522.438 151.634Z" fill="#FBF5FF"/>
<path d="M499.054 506.352C494.556 503.87 489.515 501.543 484.241 499.759C468.807 494.641 461.284 497.588 456.087 491.306C451.046 485.178 454.924 478.664 452.209 464.471C450.813 457.025 448.021 449.89 444.919 443.53C488.196 401.028 512.782 340.611 507.12 275.928C504.794 249.325 497.581 224.352 486.412 201.705C493.082 200.619 500.373 200.154 507.663 201.085C521.391 202.791 526.432 208.375 533.335 205.505C540.47 202.481 539.695 194.492 548.304 181.462C551.871 176.033 556.059 171.302 560.17 167.269C575.061 198.37 584.678 232.573 587.858 268.948C595.924 361.009 560.713 446.787 499.054 506.352Z" fill="#614BAF"/>
<path d="M502.127 430.327L506.442 433.107L510.917 426.129L514.944 428.713L510.468 435.69L515.168 438.702L520.236 430.81L524.406 433.492L515.998 446.58L494.632 432.858L503.04 419.769L507.195 422.435L502.127 430.327Z" fill="#FBF5FF"/>
<path d="M534.274 415.424L524.987 416.383L529.747 424.033L526.492 430.249L518.823 417.024L503.923 418.597L507.26 412.22L516.417 411.276L511.721 403.74L514.992 397.508L522.549 410.603L537.627 409.031L534.274 415.424Z" fill="#FBF5FF"/>
<path d="M522.732 391.607L527.46 393.585L530.65 385.946L535.073 387.79L531.882 395.429L537.012 397.589L540.634 388.953L545.218 390.864L539.203 405.209L515.772 395.405L521.787 381.061L526.354 382.972L522.732 391.607Z" fill="#FBF5FF"/>
<path d="M534.645 383.314C532.254 382.556 530.284 381.365 528.739 379.74C527.187 378.106 526.178 376.2 525.719 374.017C525.251 371.838 525.39 369.57 526.136 367.219C527.042 364.345 528.578 362.125 530.737 360.566C532.901 358.999 535.41 358.277 538.26 358.406L536.214 364.911C535.04 365.071 534.05 365.512 533.242 366.234C532.425 366.948 531.841 367.866 531.481 368.993C530.91 370.809 531.085 372.479 532.005 374.009C532.916 375.538 534.431 376.638 536.556 377.309C538.673 377.972 540.536 377.936 542.148 377.212C543.764 376.487 544.853 375.219 545.424 373.404C545.784 372.277 545.837 371.191 545.59 370.141C545.344 369.084 544.789 368.153 543.926 367.343L545.972 360.838C548.379 362.365 550.012 364.387 550.879 366.906C551.743 369.429 551.724 372.127 550.819 375.001C550.068 377.351 548.879 379.289 547.245 380.809C545.612 382.334 543.702 383.317 541.507 383.765C539.316 384.216 537.028 384.065 534.645 383.314Z" fill="#FBF5FF"/>
<path d="M531.786 347.512L546.666 350.575C548.149 350.883 549.374 350.76 550.338 350.198C551.294 349.627 551.916 348.64 552.198 347.23C552.498 345.803 552.321 344.629 551.673 343.717C551.03 342.797 549.962 342.178 548.479 341.87L533.599 338.807L534.849 332.745L549.696 335.809C551.921 336.267 553.7 337.127 555.031 338.391C556.362 339.646 557.253 341.155 557.71 342.914C558.175 344.664 558.202 346.519 557.791 348.474C557.389 350.44 556.642 352.124 555.552 353.522C554.461 354.911 553.048 355.892 551.317 356.462C549.589 357.036 547.609 357.094 545.384 356.636L530.537 353.573L531.786 347.512Z" fill="#FBF5FF"/>
<path d="M556.374 320.253C556.497 319.083 556.331 318.006 555.878 317.032C555.429 316.049 554.695 315.253 553.676 314.647L554.368 307.868C556.729 308.76 558.583 310.163 559.926 312.085C561.27 314.007 561.983 316.241 562.063 318.783L563.483 318.929C563.603 317.682 564.051 316.625 564.829 315.761C565.614 314.898 566.689 314.534 568.057 314.667C569.421 314.812 570.407 315.417 571.009 316.479C571.619 317.532 571.86 318.747 571.727 320.123L571.162 325.675L567.756 325.329L568.231 320.6C568.277 320.115 568.245 319.743 568.131 319.483C568.013 319.224 567.788 319.075 567.457 319.039C567.122 319.015 566.875 319.113 566.71 319.338C566.554 319.562 566.453 319.917 566.407 320.401L566.152 322.951L561.681 322.496C561.224 324.635 560.342 326.479 559.032 328.024C557.721 329.56 556.101 330.689 554.161 331.41C552.214 332.13 550.106 332.377 547.835 332.145C545.341 331.89 543.169 331.121 541.317 329.84C539.469 328.558 538.099 326.902 537.205 324.864C536.303 322.83 535.978 320.584 536.232 318.131C536.538 315.129 537.588 312.644 539.388 310.669C541.189 308.686 543.497 307.477 546.314 307.032L545.622 313.811C544.518 314.219 543.647 314.855 542.998 315.72C542.342 316.577 541.955 317.59 541.832 318.761C541.641 320.665 542.143 322.271 543.344 323.577C544.549 324.884 546.257 325.655 548.472 325.882C550.679 326.114 552.498 325.71 553.932 324.669C555.366 323.631 556.183 322.158 556.374 320.253Z" fill="#FBF5FF"/>
<path d="M558.67 287.911L558.706 297.397L563.197 298.903L563.203 305.383L537.777 296.251L537.763 289.093L563.142 279.835L563.163 286.38L558.67 287.911ZM553.917 289.521L544.605 292.694L553.925 295.775L553.917 289.521ZM536.022 299.932C532.441 299.353 530.647 297.688 530.634 294.941C530.64 294.404 530.722 293.936 530.876 293.538C531.034 293.144 531.27 292.662 531.588 292.092C531.819 291.642 531.993 291.289 532.101 291.031C532.213 290.766 532.265 290.484 532.256 290.193C532.258 289.3 531.715 288.781 530.625 288.639L530.614 285.456C534.194 286.038 535.985 287.699 535.986 290.446C535.992 290.975 535.918 291.439 535.76 291.833C535.606 292.231 535.374 292.725 535.064 293.312C534.813 293.741 534.635 294.09 534.535 294.356C534.427 294.613 534.375 294.887 534.38 295.178C534.382 296.075 534.925 296.606 536.01 296.78L536.022 299.932Z" fill="#FBF5FF"/>
<path d="M561.83 263.82C562.093 266.207 561.784 268.449 560.896 270.548C559.999 272.65 558.63 274.392 556.78 275.768C554.922 277.149 552.759 277.972 550.288 278.247C547.82 278.509 545.538 278.164 543.448 277.214C541.35 276.265 539.641 274.86 538.326 273.003C537.002 271.145 536.206 269.027 535.943 266.641C535.691 264.279 536.012 262.049 536.909 259.946C537.797 257.848 539.162 256.118 541.008 254.758C542.846 253.401 545 252.59 547.467 252.327C549.939 252.057 552.229 252.39 554.339 253.328C556.441 254.269 558.154 255.662 559.478 257.507C560.794 259.356 561.578 261.458 561.83 263.82ZM556.199 264.434C555.988 262.428 555.141 260.895 553.667 259.832C552.192 258.761 550.355 258.348 548.155 258.589C545.922 258.834 544.208 259.634 543.005 260.986C541.805 262.341 541.313 264.02 541.525 266.026C541.752 268.077 542.59 269.638 544.04 270.709C545.494 271.772 547.348 272.181 549.601 271.937C551.834 271.696 553.552 270.895 554.751 269.54C555.942 268.188 556.426 266.485 556.199 264.434Z" fill="#FBF5FF"/>
<path d="M499.054 506.352C452.209 551.645 390.008 581.815 320.05 587.865C249.085 594.069 181.842 574.525 127.396 536.987C129.103 532.178 130.654 526.982 131.507 521.475C134.144 505.654 130.033 498.673 135.385 492.701C140.581 486.885 147.639 489.754 161.134 485.178C168.968 482.464 176.18 478.276 182.308 473.932C220.001 496.89 265.217 508.446 312.76 504.335C364.646 499.837 410.638 477.345 444.919 443.607C448.021 449.89 450.736 457.102 452.209 464.548C454.924 478.741 451.046 485.333 456.087 491.383C461.284 497.743 468.807 494.718 484.241 499.837C489.592 501.621 494.556 503.947 499.054 506.352Z" fill="#805BFF"/>
<path d="M208.462 550.697L206.277 539.972L204.864 539.525L202.004 548.681L196.093 546.838L203.672 522.598L213.599 525.698C215.503 526.297 217.03 527.138 218.172 528.227C219.315 529.307 220.035 530.537 220.331 531.921C220.636 533.296 220.573 534.697 220.137 536.119C219.629 537.725 218.724 539.025 217.412 540.01C216.108 540.986 214.483 541.464 212.536 541.435L215.129 552.781L208.462 550.697ZM206.173 535.348L209.836 536.486C210.916 536.83 211.809 536.827 212.519 536.473C213.224 536.111 213.726 535.442 214.028 534.466C214.312 533.558 214.271 532.753 213.897 532.055C213.522 531.349 212.793 530.822 211.713 530.478L208.05 529.34L206.173 535.348Z" fill="#FBF5FF"/>
<path d="M230.194 535.337L229.031 540.341L237.107 542.21L236.031 546.876L227.955 545.007L226.686 550.445L235.808 552.56L234.697 557.387L219.541 553.878L225.271 529.134L240.427 532.642L239.316 537.453L230.194 535.337Z" fill="#FBF5FF"/>
<path d="M248.536 560.005C246.687 559.719 245.082 559.167 243.72 558.344C242.366 557.522 241.34 556.456 240.646 555.15C239.961 553.844 239.718 552.368 239.924 550.724L246.434 551.722C246.383 552.671 246.594 553.434 247.068 554.013C247.542 554.596 248.222 554.953 249.116 555.087C250.018 555.226 250.764 555.119 251.352 554.775C251.941 554.431 252.29 553.896 252.401 553.163C252.498 552.551 252.367 552.011 252.013 551.539C251.666 551.072 251.209 550.659 250.647 550.301C250.08 549.934 249.26 549.498 248.183 548.993C246.634 548.244 245.387 547.541 244.442 546.884C243.493 546.219 242.731 545.344 242.15 544.254C241.565 543.156 241.393 541.815 241.629 540.236C241.997 537.908 243.129 536.209 245.024 535.146C246.92 534.084 249.225 533.765 251.944 534.181C254.715 534.614 256.845 535.625 258.333 537.213C259.822 538.806 260.438 540.789 260.19 543.164L253.568 542.147C253.636 541.32 253.435 540.634 252.961 540.083C252.487 539.537 251.823 539.201 250.977 539.075C250.235 538.956 249.603 539.057 249.08 539.378C248.564 539.703 248.255 540.231 248.144 540.96C248.019 541.79 248.301 542.49 248.993 543.061C249.681 543.624 250.803 544.292 252.364 545.065C253.888 545.863 255.118 546.589 256.055 547.254C256.987 547.91 257.747 548.773 258.332 549.851C258.925 550.921 259.103 552.201 258.872 553.692C258.65 555.122 258.085 556.367 257.184 557.425C256.278 558.482 255.08 559.251 253.584 559.731C252.096 560.207 250.413 560.3 248.536 560.005Z" fill="#FBF5FF"/>
<path d="M270.303 536.83L269.235 551.985C269.129 553.502 269.417 554.699 270.103 555.573C270.798 556.439 271.863 556.924 273.307 557.025C274.76 557.129 275.897 556.8 276.72 556.04C277.551 555.272 278.022 554.126 278.128 552.609L279.196 537.454L285.361 537.897L284.293 553.019C284.14 555.29 283.526 557.173 282.455 558.672C281.38 560.162 280.001 561.242 278.32 561.921C276.646 562.6 274.811 562.871 272.809 562.736C270.808 562.588 269.045 562.069 267.522 561.179C266.009 560.277 264.849 559.011 264.04 557.379C263.24 555.747 262.918 553.798 263.071 551.526L264.138 536.404L270.303 536.83Z" fill="#FBF5FF"/>
<path d="M294.976 558.443L303.09 558.406L303.11 563.19L288.807 563.253L288.699 537.846L294.889 537.82L294.976 558.443Z" fill="#FBF5FF"/>
<path d="M323.251 536.413L323.609 541.333L316.876 541.817L318.357 562.224L312.191 562.671L310.71 542.263L304.01 542.748L303.653 537.828L323.251 536.413Z" fill="#FBF5FF"/>
<path d="M344.089 554.425L334.719 555.892L333.918 560.579L327.515 561.587L332.649 535.053L339.717 533.945L352.754 557.598L346.286 558.62L344.089 554.425ZM341.767 549.968L337.2 541.266L335.591 550.931L341.767 549.968Z" fill="#FBF5FF"/>
<path d="M359.502 529.768C362.1 529.107 364.497 529.048 366.697 529.584C368.893 530.111 370.759 531.173 372.292 532.762C373.833 534.356 374.909 536.364 375.521 538.788C376.129 541.191 376.146 543.466 375.567 545.609C374.984 547.755 373.846 549.591 372.148 551.118C370.458 552.649 368.332 553.739 365.766 554.389L356.541 556.732L350.277 532.111L359.502 529.768ZM364.054 549.281C366.328 548.711 367.936 547.643 368.883 546.078C369.827 544.512 370.009 542.6 369.431 540.335C368.86 538.061 367.78 536.465 366.194 535.537C364.616 534.602 362.693 534.419 360.419 534.989L357.577 535.71L361.212 550.002L364.054 549.281Z" fill="#FBF5FF"/>
<path d="M394.478 545.926C392.233 546.735 389.982 546.954 387.727 546.588C385.471 546.213 383.453 545.289 381.671 543.82C379.902 542.344 378.597 540.432 377.758 538.088C376.922 535.757 376.716 533.458 377.147 531.192C377.579 528.93 378.547 526.937 380.042 525.22C381.538 523.504 383.413 522.243 385.659 521.434C387.892 520.628 390.139 520.413 392.394 520.788C394.65 521.155 396.652 522.078 398.401 523.554C400.15 525.035 401.443 526.938 402.282 529.269C403.118 531.613 403.328 533.92 402.909 536.182C402.497 538.437 401.55 540.422 400.062 542.139C398.575 543.856 396.712 545.121 394.478 545.926ZM392.561 540.604C394.469 539.922 395.765 538.739 396.443 537.059C397.131 535.372 397.102 533.484 396.359 531.401C395.599 529.298 394.424 527.821 392.824 526.97C391.225 526.111 389.469 526.024 387.561 526.707C385.628 527.405 384.313 528.583 383.614 530.25C382.911 531.918 382.947 533.817 383.714 535.941C384.481 538.057 385.665 539.542 387.264 540.389C388.864 541.228 390.628 541.302 392.561 540.604Z" fill="#FBF5FF"/>
<path d="M182.308 473.933C176.18 478.276 168.968 482.542 161.134 485.179C147.639 489.754 140.659 486.885 135.385 492.702C129.956 498.751 134.067 505.654 131.507 521.476C130.576 526.982 129.103 532.178 127.396 536.987C57.5943 488.824 9.04309 411.111 1.13218 319.981C-1.19456 293.456 0.123899 267.474 4.5447 242.5C10.2064 241.88 16.4111 240.872 22.3831 239.01C37.0415 234.512 40.8418 228.462 48.6752 230.169C56.1983 231.875 57.2841 238.545 67.9096 247.231C73.0284 251.342 78.7677 254.755 84.4295 257.469C81.172 275.385 80.2413 293.921 81.87 312.845C87.842 382.027 126.931 440.273 182.308 473.933Z" fill="#A389FF"/>
<path d="M47.7074 321.439L42.6127 322.12L43.6913 330.346L38.9538 330.973L37.8751 322.747L32.343 323.465L33.5694 332.761L28.6533 333.415L26.6128 317.986L51.7928 314.667L53.8333 330.097L48.9338 330.735L47.7074 321.439Z" fill="#FBF5FF"/>
<path d="M31.0348 347.289C30.6535 345.468 30.6081 343.774 30.9024 342.21C31.1929 340.642 31.8283 339.31 32.8089 338.206C33.7976 337.103 35.0996 336.355 36.7187 335.972L38.0571 342.427C37.1641 342.713 36.5248 343.176 36.1432 343.812C35.7696 344.456 35.6754 345.221 35.869 346.1C36.0458 346.998 36.3991 347.658 36.9286 348.085C37.4539 348.52 38.0804 348.659 38.8079 348.51C39.4257 348.385 39.891 348.075 40.208 347.579C40.5211 347.079 40.7434 346.499 40.8711 345.836C41.0067 345.181 41.1254 344.263 41.2231 343.081C41.388 341.381 41.6174 339.973 41.9076 338.849C42.1975 337.734 42.7474 336.711 43.5617 335.776C44.384 334.842 45.5776 334.212 47.1384 333.888C49.447 333.416 51.426 333.887 53.0796 335.3C54.7415 336.704 55.8521 338.747 56.4151 341.438C56.9849 344.178 56.7817 346.524 55.8139 348.469C54.8541 350.414 53.2182 351.686 50.9059 352.292L49.5379 345.739C50.3404 345.511 50.9141 345.083 51.2552 344.446C51.5964 343.809 51.6818 343.068 51.5115 342.222C51.3585 341.483 51.0385 340.932 50.5559 340.563C50.0692 340.194 49.4621 340.084 48.7385 340.237C47.9254 340.408 47.3696 340.918 47.0789 341.775C46.7964 342.628 46.5584 343.91 46.3731 345.618C46.1633 347.334 45.9136 348.745 45.624 349.848C45.3346 350.948 44.7928 351.967 44.0027 352.906C43.2087 353.842 42.0679 354.461 40.5722 354.766C39.1618 355.058 37.8025 354.967 36.4904 354.49C35.1865 354.009 34.0467 353.153 33.071 351.921C32.1031 350.698 31.4231 349.151 31.0348 347.289Z" fill="#FBF5FF"/>
<path d="M46.1661 356.323C48.5663 355.606 50.8691 355.485 53.0782 355.967C55.2834 356.441 57.1828 357.448 58.7803 358.988C60.3858 360.528 61.5434 362.48 62.2531 364.84C63.1177 367.729 63.0986 370.428 62.1878 372.936C61.2847 375.453 59.6203 377.455 57.1863 378.938L55.2355 372.418C56.1064 371.622 56.6778 370.701 56.9456 369.653C57.2091 368.614 57.1709 367.526 56.8271 366.385C56.2843 364.559 55.2092 363.268 53.6059 362.512C51.9983 361.764 50.1247 361.711 47.9851 362.355C45.8537 362.994 44.3244 364.066 43.4012 365.572C42.4738 367.086 42.2815 368.757 42.8243 370.583C43.1681 371.724 43.7401 372.653 44.5401 373.379C45.3359 374.113 46.3212 374.568 47.4919 374.755L49.4428 381.275C46.5954 381.365 44.1029 380.612 41.9737 379.013C39.8526 377.41 38.3557 375.165 37.4911 372.276C36.7814 369.916 36.6712 367.65 37.1645 365.478C37.6539 363.301 38.6766 361.415 40.233 359.81C41.7974 358.205 43.7737 357.044 46.1661 356.323Z" fill="#FBF5FF"/>
<path d="M52.9326 401.345L49.3479 392.564L44.6198 392.852L42.1856 386.851L69.1776 385.782L71.8692 392.404L51.8189 410.511L49.338 404.444L52.9326 401.345ZM56.7421 398.073L64.1803 391.638L54.3832 392.269L56.7421 398.073Z" fill="#FBF5FF"/>
<path d="M60.6009 417.159L64.2443 424.422L59.9654 426.565L53.5673 413.777L76.2894 402.42L79.044 407.945L60.6009 417.159Z" fill="#FBF5FF"/>
<path d="M73.6996 441.25L68.8199 433.112L64.1846 434.13L60.8489 428.573L87.3583 423.384L91.0335 429.516L74.0068 450.472L70.6402 444.866L73.6996 441.25ZM76.975 437.43L83.3277 429.93L73.7474 432.054L76.975 437.43Z" fill="#FBF5FF"/>
<path d="M334.669 122.599C333.734 129.536 328.434 131.172 322.12 141.617C317.677 149.021 314.638 157.673 312.533 165.077C294.995 162.895 276.99 164.22 259.609 169.286C245.189 173.417 231.237 180.12 218.376 189.473C180.495 216.908 161.32 260.477 163.659 303.501C164.672 322.596 169.894 341.692 179.559 359.151C172.466 360.242 164.438 360.944 156.721 360.008C144.016 358.605 139.885 353.929 133.182 356.345C126.167 358.839 126.167 365.386 116.814 376.064C112.371 381.13 107.305 385.495 102.472 389.003C57.342 297.188 83.5314 183.549 169.115 121.43C215.024 88.1489 269.663 75.7562 321.808 82.3812C322.666 87.915 323.913 93.9945 326.017 99.8401C330.46 112.622 335.605 115.428 334.669 122.599Z" fill="#56003C"/>
<path d="M122.022 265.889C123.485 266.026 124.789 266.492 125.933 267.28C127.082 268.071 127.966 269.197 128.583 270.657C129.193 272.122 129.402 273.888 129.206 275.956L128.844 279.764L137.916 280.625L137.346 286.786L112.062 284.398L112.993 274.429C113.192 272.402 113.705 270.729 114.534 269.403C115.355 268.082 116.41 267.13 117.699 266.543C118.992 265.961 120.433 265.743 122.022 265.889ZM124.261 275.965C124.381 274.779 124.191 273.871 123.692 273.24C123.186 272.614 122.434 272.251 121.428 272.149C120.416 272.064 119.607 272.281 119.002 272.806C118.398 273.335 118.04 274.192 117.921 275.378L117.601 278.712L123.941 279.3L124.261 275.965Z" fill="#FBF5FF"/>
<path d="M142.458 253.272L131.89 256.217L131.558 257.672L140.904 259.872L139.479 265.893L114.75 260.07L117.128 249.948C117.594 248.007 118.325 246.434 119.326 245.223C120.327 244.004 121.503 243.192 122.851 242.787C124.204 242.382 125.604 242.354 127.059 242.694C128.693 243.088 130.054 243.898 131.138 245.125C132.214 246.356 132.81 247.944 132.916 249.889L144.046 246.491L142.458 253.272ZM127.307 256.666L128.177 252.929C128.441 251.828 128.374 250.934 127.969 250.255C127.555 249.576 126.853 249.124 125.86 248.891C124.933 248.669 124.139 248.768 123.469 249.189C122.791 249.615 122.32 250.38 122.056 251.48L121.186 255.218L127.307 256.666Z" fill="#FBF5FF"/>
<path d="M149.279 233.599C148.371 235.816 147.032 237.638 145.262 239.06C143.489 240.485 141.463 241.369 139.177 241.71C136.882 242.045 134.582 241.739 132.274 240.797C129.983 239.867 128.136 238.485 126.738 236.657C125.344 234.828 124.508 232.786 124.23 230.527C123.954 228.26 124.269 226.016 125.174 223.8C126.07 221.584 127.406 219.77 129.176 218.357C130.95 216.935 132.972 216.06 135.248 215.74C137.516 215.42 139.795 215.727 142.086 216.658C144.391 217.6 146.246 218.981 147.655 220.796C149.072 222.615 149.916 224.652 150.194 226.907C150.479 229.153 150.172 231.384 149.279 233.599ZM144.042 231.476C144.801 229.597 144.783 227.839 143.989 226.195C143.19 224.555 141.769 223.316 139.721 222.483C137.64 221.644 135.75 221.535 134.052 222.164C132.353 222.784 131.123 224.031 130.361 225.911C129.58 227.816 129.578 229.584 130.351 231.214C131.128 232.835 132.565 234.072 134.667 234.922C136.75 235.777 138.64 235.894 140.34 235.273C142.03 234.645 143.262 233.382 144.042 231.476Z" fill="#FBF5FF"/>
<path d="M138.085 198.761C139.482 196.471 141.154 194.754 143.101 193.606C145.047 192.449 147.125 191.902 149.336 191.964C151.546 192.03 153.72 192.715 155.865 194.027C157.971 195.31 159.562 196.928 160.633 198.881C161.713 200.825 162.181 202.93 162.039 205.2C161.893 207.474 161.131 209.743 159.756 212.007L154.794 220.125L133.123 206.879L138.085 198.761ZM154.962 209.555C156.188 207.551 156.597 205.664 156.189 203.891C155.78 202.109 154.577 200.613 152.585 199.393C150.581 198.167 148.688 197.77 146.907 198.199C145.12 198.633 143.608 199.85 142.382 201.854L140.856 204.349L153.436 212.05L154.962 209.555Z" fill="#FBF5FF"/>
<path d="M152.326 178.26L163.915 188.07C165.08 189.055 166.214 189.528 167.326 189.487C168.446 189.45 169.472 188.877 170.409 187.769C171.342 186.665 171.739 185.558 171.605 184.442C171.478 183.318 170.831 182.265 169.67 181.281L158.081 171.47L162.078 166.74L173.649 176.52C175.382 177.996 176.539 179.614 177.12 181.369C177.696 183.117 177.762 184.866 177.317 186.622C176.868 188.371 175.995 190.005 174.696 191.528C173.406 193.063 171.952 194.186 170.325 194.894C168.705 195.594 166.999 195.785 165.201 195.47C163.402 195.147 161.636 194.245 159.899 192.769L148.329 182.989L152.326 178.26Z" fill="#FBF5FF"/>
<path d="M180.195 150.16L183.488 153.856L178.466 158.347L192.1 173.597L187.483 177.713L173.849 162.464L168.842 166.953L165.549 163.257L180.195 150.16Z" fill="#FBF5FF"/>
<path d="M208.363 161.73C206.366 163.045 204.227 163.787 201.951 163.954C199.67 164.113 197.502 163.686 195.438 162.668C193.366 161.642 191.639 160.092 190.264 158.01C188.915 155.942 188.184 153.754 188.076 151.448C187.96 149.148 188.432 146.988 189.495 144.973C190.55 142.951 192.072 141.283 194.07 139.969C196.056 138.659 198.182 137.917 200.45 137.747C202.727 137.581 204.887 138.016 206.932 139.052C208.984 140.08 210.687 141.632 212.04 143.699C213.415 145.781 214.166 147.972 214.294 150.272C214.421 152.563 213.958 154.722 212.907 156.744C211.864 158.757 210.349 160.42 208.363 161.73ZM205.26 157.012C206.95 155.898 207.931 154.445 208.202 152.647C208.48 150.84 208.01 149.011 206.785 147.156C205.557 145.28 204.066 144.12 202.309 143.672C200.552 143.215 198.828 143.542 197.138 144.657C195.417 145.786 194.416 147.244 194.132 149.027C193.839 150.803 194.313 152.64 195.551 154.535C196.787 156.421 198.287 157.589 200.043 158.033C201.8 158.482 203.539 158.142 205.26 157.012Z" fill="#FBF5FF"/>
<path d="M477.119 406.807C470.794 404.781 462.907 402.91 454.708 402.521C441.199 401.897 436.045 405.95 430.266 402.131C424.722 398.468 426.05 392.467 420.193 381.867C416.211 374.697 410.667 368.462 405.435 363.474C433.312 319.44 433.468 261.611 401.296 217.343C379.353 187.181 346.713 169.256 312.12 164.969C314.15 157.565 317.196 148.914 321.725 141.51C328.05 131.067 333.36 129.43 334.297 122.494C335.234 115.324 330.08 112.518 325.551 99.7364C323.443 93.8911 322.193 87.8121 321.334 82.2786C378.026 89.4487 431.828 119.143 467.983 169.022C520.379 241.269 521.082 335.183 477.119 406.807Z" fill="#8A0261"/>
<path d="M390.198 169.051L391.639 158.179L390.446 157.304L384.754 165.039L379.764 161.369L394.819 140.91L403.197 147.067C404.805 148.258 405.972 149.552 406.69 150.948C407.416 152.337 407.697 153.736 407.533 155.14C407.378 156.536 406.859 157.841 405.979 159.053C404.985 160.402 403.705 161.327 402.143 161.836C400.59 162.341 398.899 162.258 397.075 161.592L395.831 173.184L390.198 169.051ZM393.035 153.79L396.126 156.054C397.036 156.73 397.885 157.013 398.678 156.904C399.468 156.788 400.162 156.319 400.758 155.503C401.328 154.731 401.551 153.952 401.422 153.17C401.293 152.388 400.773 151.663 399.864 150.986L396.772 148.722L393.035 153.79Z" fill="#FBF5FF"/>
<path d="M415.992 164.224L412.44 167.941L418.427 173.657L415.113 177.109L409.126 171.392L405.287 175.42L412.067 181.881L408.634 185.474L397.375 174.734L414.929 156.368L426.189 167.108L422.772 170.685L415.992 164.224Z" fill="#FBF5FF"/>
<path d="M435.999 191.473C434.861 192.404 433.599 192.994 432.222 193.24C430.853 193.482 429.438 193.301 427.976 192.69C426.513 192.079 425.125 190.962 423.814 189.347L421.399 186.383L414.333 192.136L410.427 187.332L430.131 171.304L436.453 179.072C437.733 180.658 438.541 182.212 438.878 183.734C439.223 185.249 439.136 186.664 438.62 187.977C438.112 189.302 437.238 190.466 435.999 191.473ZM427.354 185.888C428.101 186.801 428.872 187.31 429.668 187.408C430.46 187.514 431.248 187.248 432.031 186.601C432.821 185.967 433.251 185.254 433.317 184.456C433.383 183.65 433.039 182.791 432.293 181.874L430.17 179.262L425.232 183.277L427.354 185.888Z" fill="#FBF5FF"/>
<path d="M448.475 195.792L435.453 203.608C434.147 204.383 433.332 205.303 433.009 206.369C432.681 207.43 432.892 208.583 433.641 209.824C434.385 211.072 435.308 211.818 436.41 212.058C437.519 212.298 438.727 212.029 440.033 211.255L453.055 203.439L456.229 208.747L443.241 216.548C441.283 217.716 439.384 218.283 437.542 218.251C435.707 218.226 434.03 217.724 432.51 216.746C430.999 215.766 429.729 214.415 428.702 212.69C427.674 210.973 427.087 209.234 426.947 207.474C426.802 205.709 427.172 204.026 428.047 202.426C428.93 200.837 430.354 199.457 432.312 198.286L445.301 190.484L448.475 195.792Z" fill="#FBF5FF"/>
<path d="M466.092 231.251L461.532 233.179L458.896 226.972L440.062 234.95L437.648 229.253L456.482 221.276L453.862 215.085L458.423 213.157L466.092 231.251Z" fill="#FBF5FF"/>
<path d="M451.644 256.675L449.23 247.502L444.489 247.174L442.843 240.912L469.749 243.33L471.578 250.248L449.362 265.62L447.686 259.292L451.644 256.675ZM455.835 253.924L464.035 248.493L454.244 247.873L455.835 253.924Z" fill="#FBF5FF"/>
<path d="M455.964 277.666C456.077 278.843 456.455 279.862 457.098 280.722C457.741 281.589 458.612 282.228 459.719 282.642L460.39 289.414C457.884 288.994 455.784 287.976 454.097 286.353C452.406 284.738 451.266 282.697 450.682 280.227L449.27 280.362C449.388 281.596 449.155 282.71 448.564 283.712C447.972 284.723 446.993 285.296 445.629 285.433C444.265 285.57 443.182 285.173 442.38 284.246C441.569 283.327 441.091 282.187 440.954 280.823L440.426 275.27L443.82 274.943L444.269 279.668C444.326 280.155 444.436 280.508 444.597 280.733C444.761 280.954 445.012 281.049 445.345 281.023C445.682 280.98 445.91 280.836 446.026 280.582C446.133 280.336 446.161 279.973 446.104 279.486L445.855 276.936L450.32 276.508C450.347 274.318 450.85 272.342 451.83 270.572C452.818 268.802 454.188 267.363 455.94 266.264C457.7 265.173 459.716 264.522 461.989 264.301C464.49 264.062 466.773 264.384 468.838 265.267C470.911 266.162 472.585 267.518 473.859 269.342C475.141 271.174 475.9 273.317 476.145 275.777C476.428 278.772 475.881 281.414 474.504 283.697C473.135 285.989 471.113 287.631 468.444 288.619L467.773 281.847C468.789 281.243 469.53 280.449 469.991 279.466C470.453 278.49 470.627 277.414 470.514 276.237C470.323 274.329 469.512 272.855 468.079 271.817C466.643 270.775 464.817 270.363 462.6 270.585C460.392 270.792 458.683 271.546 457.476 272.845C456.277 274.154 455.773 275.758 455.964 277.666Z" fill="#FBF5FF"/>
<path d="M455.141 308.297L455.747 298.829L451.359 297.029L451.775 290.561L476.551 301.365L476.091 308.51L450.142 316.061L450.561 309.528L455.141 308.297ZM459.997 307.012L469.5 304.466L460.404 300.77L459.997 307.012ZM478.56 297.81C482.071 298.624 483.743 300.404 483.576 303.146C483.542 303.683 483.429 304.143 483.244 304.523C483.066 304.912 482.795 305.386 482.44 305.945C482.172 306.362 481.98 306.702 481.864 306.956C481.744 307.218 481.672 307.498 481.652 307.788C481.59 308.679 482.097 309.23 483.168 309.436L482.97 312.614C479.447 311.795 477.774 310.019 477.954 307.278C477.984 306.749 478.092 306.289 478.27 305.9C478.447 305.519 478.71 305.049 479.056 304.494C479.333 304.073 479.529 303.737 479.648 303.483C479.776 303.23 479.852 302.958 479.877 302.668C479.934 301.773 479.424 301.202 478.347 300.955L478.56 297.81Z" fill="#FBF5FF"/>
<path d="M446.973 328.628C447.515 326.298 448.553 324.287 450.088 322.597C451.614 320.902 453.475 319.714 455.67 319.03C457.874 318.346 460.19 318.281 462.616 318.835C465.027 319.397 467.068 320.468 468.741 322.05C470.409 323.64 471.559 325.532 472.191 327.726C472.818 329.919 472.866 332.177 472.327 334.507C471.786 336.821 470.756 338.828 469.23 340.523C467.703 342.214 465.843 343.394 463.648 344.058C461.453 344.73 459.146 344.783 456.736 344.222C454.309 343.667 452.259 342.599 450.579 341.021C448.91 339.439 447.76 337.56 447.127 335.378C446.487 333.192 446.435 330.942 446.973 328.628ZM452.483 329.91C452.02 331.883 452.312 333.614 453.349 335.105C454.394 336.592 455.998 337.585 458.157 338.087C460.343 338.599 462.227 338.411 463.808 337.531C465.385 336.647 466.403 335.218 466.866 333.244C467.326 331.234 467.047 329.487 466.034 328.002C465.016 326.512 463.405 325.515 461.194 325.002C459.004 324.498 457.12 324.69 455.542 325.574C453.961 326.454 452.943 327.899 452.483 329.91Z" fill="#FBF5FF"/>
<path d="M477.217 406.904C462.958 430.16 443.869 451.084 420.337 468.118C324.655 537.343 190.792 516.031 121.445 420.515C114.121 410.404 107.81 399.903 102.511 389.092C107.264 385.592 112.407 381.236 116.848 376.18C126.198 365.524 126.198 358.913 133.211 356.501C139.912 354.09 144.119 358.757 156.742 360.157C164.456 361.013 172.559 360.39 179.572 359.302C182.065 363.813 184.87 368.169 187.987 372.447C230.14 430.549 312.188 442.994 371.171 400.37C385.352 390.103 396.884 377.58 405.689 363.735C410.909 368.713 416.519 374.936 420.415 382.091C426.259 392.67 424.935 398.659 430.467 402.315C436.233 406.126 441.375 402.159 454.855 402.704C463.036 402.937 470.984 404.881 477.217 406.904Z" fill="#D30094"/>
<path d="M196.922 424.393L193.964 428.581L200.726 433.357L197.966 437.273L191.205 432.497L187.983 437.053L195.639 442.456L192.781 446.5L180.073 437.512L194.73 416.764L207.437 425.753L204.579 429.797L196.922 424.393Z" fill="#FBF5FF"/>
<path d="M211.159 456.821L210.237 447.514L202.568 452.275L196.349 448.979L209.59 441.364L208.06 426.441L214.439 429.82L215.348 438.965L222.902 434.299L229.121 437.579L215.995 445.115L217.538 460.184L211.159 456.821Z" fill="#FBF5FF"/>
<path d="M246.021 452.343C245.515 453.717 244.737 454.868 243.689 455.797C242.64 456.718 241.33 457.291 239.767 457.514C238.201 457.728 236.439 457.478 234.479 456.769L230.879 455.469L227.756 464.033L221.939 461.907L230.617 438.044L240.033 441.471C241.949 442.171 243.442 443.083 244.515 444.207C245.597 445.335 246.248 446.601 246.476 448.003C246.713 449.396 246.561 450.844 246.021 452.343ZM235.716 451.989C236.829 452.394 237.754 452.436 238.494 452.113C239.23 451.781 239.774 451.143 240.124 450.199C240.47 449.247 240.462 448.41 240.098 447.694C239.741 446.977 239.007 446.416 237.894 446.011L234.728 444.863L232.551 450.841L235.716 451.989Z" fill="#FBF5FF"/>
<path d="M261.208 468.813L251.93 466.843L249.523 470.926L243.177 469.583L257.448 446.632L264.438 448.13L268.175 474.884L261.765 473.524L261.208 468.813ZM260.639 463.827L259.498 454.065L254.518 462.536L260.639 463.827Z" fill="#FBF5FF"/>
<path d="M295.456 476.667L289.272 476.312L279.829 460.086L278.939 475.731L272.755 475.393L274.184 450.028L280.368 450.366L289.81 466.673L290.701 450.947L296.885 451.302L295.456 476.667Z" fill="#FBF5FF"/>
<path d="M310.769 475.902C308.912 476.059 307.222 475.895 305.702 475.419C304.19 474.935 302.946 474.14 301.974 473.034C301.009 471.932 300.429 470.554 300.228 468.902L306.798 468.342C306.965 469.274 307.346 469.962 307.945 470.412C308.54 470.853 309.285 471.039 310.183 470.964C311.089 470.881 311.788 470.613 312.28 470.156C312.772 469.691 312.983 469.084 312.922 468.34C312.875 467.717 312.625 467.216 312.17 466.842C311.711 466.471 311.166 466.176 310.535 465.96C309.9 465.748 308.999 465.516 307.831 465.271C306.156 464.902 304.777 464.509 303.696 464.092C302.624 463.679 301.677 463.01 300.851 462.092C300.033 461.167 299.56 459.907 299.423 458.321C299.225 455.971 299.918 454.059 301.516 452.585C303.111 451.103 305.277 450.243 308.02 450.003C310.803 449.768 313.099 450.252 314.914 451.452C316.738 452.644 317.809 454.43 318.127 456.802L311.461 457.361C311.344 456.531 310.987 455.907 310.391 455.486C309.792 455.069 309.067 454.896 308.218 454.967C307.461 455.02 306.872 455.27 306.445 455.716C306.026 456.153 305.851 456.741 305.916 457.485C305.988 458.306 306.427 458.915 307.229 459.315C308.031 459.707 309.273 460.098 310.96 460.488C312.634 460.882 314.001 461.295 315.061 461.732C316.129 462.16 317.08 462.822 317.907 463.715C318.733 464.613 319.207 465.816 319.337 467.325C319.464 468.773 319.213 470.115 318.58 471.353C317.946 472.596 316.961 473.623 315.623 474.442C314.293 475.254 312.678 475.737 310.769 475.902Z" fill="#FBF5FF"/>
<path d="M339.794 466.258L330.55 468.36L330.073 473.071L323.748 474.508L327.106 447.687L334.079 446.114L348.657 468.852L342.284 470.304L339.794 466.258ZM337.194 461.951L332.073 453.565L331.096 463.343L337.194 461.951ZM323.129 446.784C322.918 443.161 324.147 441.047 326.831 440.443C327.35 440.321 327.819 440.296 328.238 440.368C328.657 440.431 329.188 440.552 329.832 440.732C330.303 440.868 330.677 440.963 330.959 441.008C331.237 441.057 331.516 441.045 331.8 440.972C332.675 440.784 333.065 440.144 332.977 439.052L336.075 438.34C336.297 441.963 335.068 444.077 332.389 444.682C331.87 444.803 331.392 444.828 330.965 444.757C330.546 444.686 330.019 444.564 329.387 444.393C328.913 444.248 328.535 444.15 328.245 444.101C327.962 444.056 327.684 444.06 327.404 444.12C326.528 444.324 326.13 444.981 326.21 446.089L323.129 446.784Z" fill="#FBF5FF"/>
<path d="M364.345 463.219C362.122 464.101 359.883 464.394 357.625 464.1C355.367 463.807 353.32 462.951 351.492 461.532C349.672 460.114 348.303 458.251 347.377 455.942C346.456 453.633 346.172 451.346 346.531 449.077C346.889 446.8 347.789 444.778 349.227 443.01C350.668 441.247 352.495 439.922 354.718 439.04C356.93 438.161 359.164 437.864 361.422 438.158C363.688 438.444 365.719 439.291 367.507 440.709C369.303 442.119 370.664 443.974 371.59 446.283C372.511 448.592 372.803 450.891 372.468 453.181C372.13 455.462 371.242 457.484 369.804 459.248C368.375 461.015 366.557 462.34 364.345 463.219ZM362.262 457.967C364.148 457.213 365.399 455.98 366.02 454.276C366.648 452.565 366.552 450.677 365.736 448.616C364.904 446.535 363.678 445.102 362.054 444.309C360.426 443.508 358.673 443.489 356.787 444.243C354.876 445.001 353.605 446.226 352.964 447.916C352.324 449.599 352.424 451.491 353.264 453.593C354.092 455.687 355.318 457.128 356.946 457.917C358.582 458.71 360.351 458.725 362.262 457.967Z" fill="#FBF5FF"/>
<ellipse cx="294.72" cy="294.719" rx="133.4" ry="133.399" fill="#00166F"/>
<path d="M231.204 289.937C230.739 289.088 230.077 288.442 229.216 287.998C228.364 287.558 227.362 287.335 226.211 287.335C224.207 287.335 222.6 287.994 221.396 289.307C220.188 290.623 219.586 292.377 219.586 294.574C219.586 296.913 220.216 298.739 221.477 300.052C222.745 301.368 224.49 302.023 226.712 302.023C228.231 302.023 229.511 301.643 230.557 300.876C231.612 300.1 232.383 298.985 232.868 297.531H225.015V292.974H238.475V298.727C238.01 300.27 237.231 301.708 236.132 303.041C235.041 304.366 233.652 305.44 231.963 306.256C230.271 307.076 228.364 307.484 226.243 307.484C223.731 307.484 221.493 306.935 219.522 305.836C217.558 304.737 216.032 303.214 214.933 301.263C213.834 299.304 213.285 297.075 213.285 294.574C213.285 292.066 213.834 289.824 214.933 287.852C216.032 285.881 217.554 284.354 219.505 283.264C221.465 282.165 223.698 281.615 226.211 281.615C229.249 281.615 231.806 282.355 233.886 283.829C235.974 285.295 237.36 287.331 238.039 289.937H231.204Z" fill="#FBF5FF"/>
<path d="M254.867 307.306L249.583 297.709H248.097V307.306H241.908V281.906H252.298C254.301 281.906 256.006 282.258 257.42 282.957C258.83 283.647 259.884 284.605 260.587 285.833C261.286 287.053 261.637 288.41 261.637 289.904C261.637 291.585 261.156 293.096 260.199 294.429C259.25 295.754 257.844 296.691 255.982 297.24L261.847 307.306H254.867ZM248.097 293.33H251.926C253.065 293.33 253.918 293.055 254.479 292.506C255.049 291.948 255.335 291.161 255.335 290.147C255.335 289.189 255.049 288.434 254.479 287.885C253.918 287.327 253.065 287.044 251.926 287.044H248.097V293.33Z" fill="#FBF5FF"/>
<path d="M277.523 307.565C275.132 307.565 272.938 307.011 270.947 305.9C268.951 304.794 267.368 303.243 266.196 301.247C265.033 299.256 264.451 297.014 264.451 294.525C264.451 292.049 265.033 289.819 266.196 287.836C267.368 285.857 268.951 284.31 270.947 283.199C272.938 282.092 275.132 281.534 277.523 281.534C279.902 281.534 282.088 282.092 284.083 283.199C286.074 284.31 287.642 285.857 288.785 287.836C289.936 289.819 290.514 292.049 290.514 294.525C290.514 297.014 289.932 299.256 288.769 301.247C287.614 303.243 286.046 304.794 284.067 305.9C282.083 307.011 279.902 307.565 277.523 307.565ZM277.523 301.909C279.547 301.909 281.167 301.239 282.386 299.89C283.602 298.532 284.212 296.747 284.212 294.525C284.212 292.287 283.602 290.498 282.386 289.161C281.167 287.816 279.547 287.141 277.523 287.141C275.463 287.141 273.827 287.812 272.611 289.145C271.391 290.47 270.785 292.263 270.785 294.525C270.785 296.779 271.391 298.573 272.611 299.906C273.827 301.243 275.463 301.909 277.523 301.909Z" fill="#FBF5FF"/>
<path d="M328.909 281.906L322.284 307.306H314.787L310.731 290.583L306.53 307.306H299.049L292.602 281.906H299.227L302.878 300.391L307.403 281.906H314.205L318.552 300.391L322.252 281.906H328.909Z" fill="#FBF5FF"/>
<path d="M350.285 281.906V286.851H343.547V307.306H337.358V286.851H330.637V281.906H350.285Z" fill="#FBF5FF"/>
<path d="M375.403 281.906V307.306H369.214V296.852H359.584V307.306H353.396V281.906H359.584V291.859H369.214V281.906H375.403Z" fill="#FBF5FF"/>
</svg>
