<svg width="1440" height="940" viewBox="0 0 1440 940" fill="none" xmlns="http://www.w3.org/2000/svg">
<g clip-path="url(#clip0_3082_2835)">
<rect width="1440" height="940" fill="#150C36"/>
<g filter="url(#filter0_f_3082_2835)">
<path d="M357.273 248.317C357.273 250.18 357.111 252.016 356.761 253.852C356.411 255.675 355.899 257.445 355.224 259.177C354.537 260.895 353.712 262.534 352.726 264.081C351.739 265.629 350.614 267.059 349.352 268.383C348.103 269.695 346.729 270.875 345.255 271.911C343.781 272.947 342.219 273.813 340.582 274.534C338.933 275.242 337.247 275.78 335.51 276.147C333.761 276.514 332 276.685 330.226 276.685C328.452 276.685 326.69 276.514 324.954 276.147C323.205 275.78 321.518 275.242 319.869 274.534C318.232 273.813 316.671 272.947 315.197 271.911C313.723 270.875 312.348 269.695 311.099 268.383C309.837 267.059 308.725 265.629 307.738 264.081C306.751 262.534 305.914 260.895 305.227 259.177C304.553 257.445 304.04 255.675 303.691 253.852C303.353 252.016 303.178 250.18 303.178 248.317C303.178 246.442 303.353 244.606 303.691 242.77C304.04 240.947 304.553 239.176 305.227 237.445C305.914 235.727 306.751 234.101 307.738 232.54C308.725 230.993 309.837 229.563 311.099 228.238C312.348 226.927 313.723 225.747 315.197 224.711C316.671 223.675 318.232 222.809 319.869 222.088C321.518 221.379 323.205 220.842 324.954 220.474C326.69 220.12 328.452 219.937 330.226 219.937C332 219.937 333.761 220.12 335.51 220.474C337.247 220.842 338.933 221.379 340.582 222.088C342.219 222.809 343.781 223.675 345.255 224.711C346.729 225.747 348.103 226.927 349.352 228.238C350.614 229.563 351.739 230.993 352.726 232.54C353.712 234.101 354.537 235.727 355.224 237.445C355.899 239.176 356.411 240.947 356.761 242.77C357.111 244.606 357.273 246.442 357.273 248.317Z" fill="#800BD2" fill-opacity="0.15"/>
<path d="M795.639 389.473C795.639 391.335 795.464 393.185 795.114 395.008C794.776 396.831 794.264 398.614 793.577 400.332C792.903 402.05 792.066 403.69 791.079 405.237C790.092 406.785 788.967 408.214 787.718 409.539C786.456 410.85 785.094 412.031 783.62 413.067C782.134 414.103 780.584 414.982 778.935 415.69C777.299 416.398 775.612 416.936 773.863 417.303C772.127 417.67 770.365 417.854 768.591 417.854C766.805 417.854 765.056 417.67 763.307 417.303C761.57 416.936 759.871 416.398 758.235 415.69C756.598 414.982 755.036 414.103 753.562 413.067C752.076 412.031 750.714 410.85 749.465 409.539C748.203 408.214 747.078 406.785 746.091 405.237C745.104 403.69 744.28 402.05 743.593 400.332C742.918 398.614 742.406 396.831 742.056 395.008C741.706 393.185 741.531 391.335 741.531 389.473C741.531 387.611 741.706 385.762 742.056 383.939C742.406 382.103 742.918 380.332 743.593 378.614C744.28 376.883 745.104 375.257 746.091 373.709C747.078 372.148 748.203 370.719 749.465 369.407C750.714 368.083 752.076 366.902 753.562 365.879C755.036 364.843 756.598 363.965 758.235 363.256C759.871 362.535 761.57 361.997 763.307 361.63C765.056 361.276 766.805 361.093 768.591 361.093C770.365 361.093 772.127 361.276 773.863 361.63C775.612 361.997 777.299 362.535 778.935 363.256C780.584 363.965 782.134 364.843 783.62 365.879C785.094 366.902 786.456 368.083 787.718 369.407C788.967 370.719 790.092 372.148 791.079 373.709C792.066 375.257 792.903 376.883 793.577 378.614C794.264 380.332 794.776 382.103 795.114 383.939C795.464 385.762 795.639 387.611 795.639 389.473Z" fill="#800BD2" fill-opacity="0.15"/>
<path d="M1278.39 276.685C1278.39 278.547 1278.22 280.396 1277.87 282.219C1277.52 284.055 1277 285.826 1276.33 287.544C1275.65 289.275 1274.82 290.901 1273.83 292.449C1272.84 293.996 1271.72 295.439 1270.47 296.751C1269.21 298.075 1267.85 299.242 1266.36 300.279C1264.89 301.315 1263.32 302.193 1261.69 302.901C1260.05 303.623 1258.35 304.161 1256.62 304.515C1254.87 304.882 1253.12 305.065 1251.33 305.065C1249.56 305.065 1247.8 304.882 1246.06 304.515C1244.32 304.161 1242.62 303.623 1240.99 302.901C1239.34 302.193 1237.79 301.315 1236.3 300.279C1234.83 299.242 1233.47 298.075 1232.2 296.751C1230.96 295.439 1229.83 293.996 1228.84 292.449C1227.86 290.901 1227.02 289.275 1226.35 287.544C1225.66 285.826 1225.15 284.055 1224.81 282.219C1224.46 280.396 1224.28 278.547 1224.28 276.685C1224.28 274.823 1224.46 272.973 1224.81 271.15C1225.15 269.327 1225.66 267.544 1226.35 265.826C1227.02 264.108 1227.86 262.468 1228.84 260.921C1229.83 259.373 1230.96 257.944 1232.2 256.619C1233.47 255.308 1234.83 254.127 1236.3 253.091C1237.79 252.055 1239.34 251.176 1240.99 250.468C1242.62 249.76 1244.32 249.222 1246.06 248.855C1247.8 248.488 1249.56 248.304 1251.33 248.304C1253.12 248.304 1254.87 248.488 1256.62 248.855C1258.35 249.222 1260.05 249.76 1261.69 250.468C1263.32 251.176 1264.89 252.055 1266.36 253.091C1267.85 254.127 1269.21 255.308 1270.47 256.619C1271.72 257.944 1272.84 259.373 1273.83 260.921C1274.82 262.468 1275.65 264.108 1276.33 265.826C1277 267.544 1277.52 269.327 1277.87 271.15C1278.22 272.973 1278.39 274.823 1278.39 276.685Z" fill="#800BD2" fill-opacity="0.15"/>
<path d="M979.56 784.572C979.56 786.435 979.385 788.284 979.035 790.107C978.685 791.93 978.173 793.713 977.498 795.431C976.811 797.149 975.987 798.789 975 800.336C974.013 801.884 972.888 803.313 971.627 804.638C970.377 805.95 969.016 807.13 967.529 808.166C966.055 809.202 964.493 810.081 962.857 810.789C961.22 811.497 959.521 812.035 957.784 812.402C956.035 812.769 954.274 812.953 952.5 812.953C950.726 812.953 948.964 812.769 947.228 812.402C945.479 812.035 943.792 811.497 942.156 810.789C940.507 810.081 938.945 809.202 937.471 808.166C935.997 807.13 934.635 805.95 933.373 804.638C932.124 803.313 931 801.884 930.013 800.336C929.026 798.789 928.189 797.149 927.514 795.431C926.827 793.713 926.315 791.93 925.965 790.107C925.628 788.284 925.453 786.435 925.453 784.572C925.453 782.71 925.628 780.861 925.965 779.038C926.315 777.202 926.827 775.431 927.514 773.713C928.189 771.982 929.026 770.356 930.013 768.808C931 767.248 932.124 765.818 933.373 764.506C934.635 763.182 935.997 762.002 937.471 760.979C938.945 759.943 940.507 759.064 942.156 758.356C943.792 757.634 945.479 757.097 947.228 756.729C948.964 756.375 950.726 756.192 952.5 756.192C954.274 756.192 956.035 756.375 957.784 756.729C959.521 757.097 961.22 757.634 962.857 758.356C964.493 759.064 966.055 759.943 967.529 760.979C969.016 762.002 970.377 763.182 971.627 764.506C972.888 765.818 974.013 767.248 975 768.808C975.987 770.356 976.811 771.982 977.498 773.713C978.173 775.431 978.685 777.202 979.035 779.038C979.385 780.861 979.56 782.71 979.56 784.572Z" fill="#800BD2" fill-opacity="0.15"/>
<path d="M603.621 727.811C603.621 729.673 603.446 731.522 603.096 733.345C602.759 735.181 602.234 736.952 601.56 738.67C600.885 740.401 600.048 742.027 599.061 743.575C598.074 745.136 596.95 746.565 595.701 747.877C594.439 749.201 593.077 750.382 591.603 751.404C590.116 752.441 588.555 753.319 586.918 754.027C585.282 754.749 583.582 755.287 581.846 755.654C580.097 756.008 578.348 756.191 576.561 756.191C574.787 756.191 573.026 756.008 571.289 755.654C569.553 755.287 567.854 754.749 566.217 754.027C564.568 753.319 563.019 752.441 561.532 751.404C560.058 750.382 558.696 749.201 557.435 747.877C556.185 746.565 555.061 745.136 554.074 743.575C553.087 742.027 552.25 740.401 551.575 738.67C550.888 736.952 550.376 735.181 550.039 733.345C549.689 731.522 549.514 729.673 549.514 727.811C549.514 725.948 549.689 724.099 550.039 722.276C550.376 720.453 550.888 718.67 551.575 716.952C552.25 715.234 553.087 713.594 554.074 712.047C555.061 710.499 556.185 709.07 557.435 707.745C558.696 706.434 560.058 705.253 561.532 704.217C563.019 703.181 564.568 702.302 566.217 701.594C567.854 700.886 569.553 700.348 571.289 699.981C573.026 699.614 574.787 699.43 576.561 699.43C578.348 699.43 580.097 699.614 581.846 699.981C583.582 700.348 585.282 700.886 586.918 701.594C588.555 702.302 590.116 703.181 591.59 704.217C593.077 705.253 594.439 706.434 595.701 707.745C596.95 709.07 598.074 710.499 599.061 712.047C600.048 713.594 600.885 715.234 601.56 716.952C602.234 718.67 602.759 720.453 603.096 722.276C603.446 724.099 603.621 725.948 603.621 727.811Z" fill="#800BD2" fill-opacity="0.15"/>
<path d="M9.98104 640.505C9.98104 642.367 9.80613 644.204 9.45633 646.04C9.10653 647.863 8.59432 649.633 7.9197 651.364C7.23259 653.082 6.40805 654.722 5.42111 656.269C4.43416 657.817 3.30979 659.246 2.0605 660.571C0.79871 661.882 -0.56302 663.063 -2.04968 664.099C-3.52385 665.135 -5.08548 666 -6.72205 666.722C-8.35863 667.43 -10.0577 667.968 -11.7942 668.335C-13.5432 668.702 -15.2922 668.873 -17.0787 668.873C-18.8527 668.873 -20.6142 668.702 -22.3507 668.335C-24.0998 667.968 -25.7863 667.43 -27.4229 666.722C-29.072 666 -30.6211 665.135 -32.1077 664.099C-33.5819 663.063 -34.9437 661.882 -36.2054 660.571C-37.4547 659.246 -38.5791 657.817 -39.566 656.269C-40.553 654.722 -41.39 653.082 -42.0646 651.364C-42.7517 649.633 -43.264 647.863 -43.6013 646.04C-43.9511 644.204 -44.126 642.367 -44.126 640.505C-44.126 638.63 -43.9511 636.794 -43.6013 634.958C-43.264 633.135 -42.7517 631.364 -42.0646 629.633C-41.39 627.915 -40.553 626.275 -39.566 624.728C-38.5791 623.18 -37.4547 621.751 -36.2054 620.426C-34.9437 619.115 -33.5819 617.934 -32.1077 616.898C-30.6211 615.862 -29.072 614.997 -27.4229 614.275C-25.7863 613.567 -24.0998 613.029 -22.3507 612.662C-20.6142 612.308 -18.8527 612.125 -17.0787 612.125C-15.2922 612.125 -13.5432 612.295 -11.7942 612.662C-10.0577 613.029 -8.35863 613.567 -6.72205 614.275C-5.08548 614.997 -3.52385 615.862 -2.04968 616.898C-0.56302 617.934 0.79871 619.115 2.0605 620.426C3.30979 621.751 4.43416 623.18 5.42111 624.728C6.40805 626.275 7.23259 627.915 7.9197 629.633C8.59432 631.364 9.10653 633.135 9.45633 634.958C9.80613 636.794 9.98104 638.63 9.98104 640.505Z" fill="#800BD2" fill-opacity="0.15"/>
<path d="M430.806 599.023C430.794 600.885 430.631 602.734 430.282 604.557C429.932 606.393 429.42 608.164 428.745 609.882C428.058 611.613 427.233 613.239 426.246 614.787C425.259 616.347 424.135 617.777 422.873 619.089C421.624 620.413 420.25 621.593 418.776 622.616C417.301 623.652 415.74 624.531 414.103 625.239C412.454 625.961 410.768 626.498 409.031 626.866C407.282 627.22 405.52 627.403 403.746 627.403C401.972 627.403 400.211 627.22 398.474 626.866C396.725 626.498 395.039 625.961 393.39 625.239C391.753 624.531 390.192 623.652 388.717 622.616C387.243 621.593 385.869 620.413 384.62 619.089C383.358 617.777 382.246 616.347 381.259 614.787C380.272 613.239 379.435 611.613 378.761 609.882C378.073 608.164 377.561 606.393 377.211 604.557C376.874 602.734 376.699 600.885 376.699 599.023C376.699 597.16 376.874 595.311 377.211 593.488C377.561 591.665 378.073 589.882 378.761 588.164C379.435 586.446 380.272 584.806 381.259 583.259C382.246 581.711 383.358 580.282 384.62 578.957C385.869 577.645 387.243 576.465 388.717 575.429C390.192 574.393 391.753 573.514 393.39 572.806C395.039 572.098 396.725 571.56 398.474 571.193C400.211 570.826 401.972 570.642 403.746 570.642C405.52 570.642 407.282 570.826 409.031 571.193C410.768 571.56 412.454 572.098 414.103 572.806C415.74 573.514 417.301 574.393 418.776 575.429C420.25 576.465 421.624 577.645 422.873 578.957C424.135 580.282 425.259 581.711 426.246 583.259C427.233 584.806 428.058 586.446 428.745 588.164C429.42 589.882 429.932 591.665 430.282 593.488C430.631 595.311 430.794 597.16 430.806 599.023Z" fill="#800BD2" fill-opacity="0.15"/>
<path d="M123.904 341.368C123.904 342.574 123.792 343.768 123.567 344.961C123.342 346.142 123.005 347.296 122.568 348.424C122.13 349.538 121.581 350.601 120.944 351.61C120.306 352.607 119.582 353.538 118.757 354.404C117.945 355.256 117.058 356.017 116.096 356.686C115.134 357.368 114.122 357.932 113.061 358.391C111.999 358.863 110.899 359.204 109.762 359.44C108.626 359.676 107.489 359.794 106.339 359.794C105.177 359.794 104.041 359.676 102.904 359.44C101.779 359.204 100.68 358.863 99.6056 358.391C98.5437 357.932 97.5318 357.368 96.5698 356.686C95.6079 356.017 94.7209 355.256 93.9088 354.404C93.0968 353.538 92.3722 352.607 91.7226 351.61C91.0854 350.601 90.5482 349.538 90.0985 348.424C89.6612 347.296 89.3239 346.142 89.099 344.961C88.8742 343.768 88.7617 342.574 88.7617 341.368C88.7617 340.148 88.8742 338.955 89.099 337.774C89.3239 336.581 89.6612 335.427 90.0985 334.312C90.5482 333.197 91.0854 332.135 91.7226 331.125C92.3722 330.115 93.0968 329.184 93.9088 328.332C94.7209 327.479 95.6079 326.705 96.5698 326.036C97.5318 325.368 98.5437 324.804 99.6056 324.332C100.68 323.872 101.779 323.518 102.904 323.282C104.041 323.046 105.177 322.928 106.339 322.928C107.489 322.928 108.626 323.046 109.762 323.282C110.899 323.518 111.999 323.872 113.061 324.332C114.122 324.804 115.134 325.368 116.096 326.036C117.058 326.705 117.945 327.479 118.757 328.332C119.582 329.184 120.306 330.115 120.944 331.125C121.581 332.135 122.13 333.197 122.568 334.312C123.005 335.427 123.342 336.581 123.567 337.774C123.792 338.955 123.904 340.148 123.904 341.368Z" fill="#800BD2" fill-opacity="0.15"/>
<path d="M183.408 687.313C183.408 688.519 183.296 689.726 183.071 690.906C182.846 692.1 182.509 693.241 182.071 694.368C181.634 695.483 181.084 696.545 180.447 697.555C179.81 698.552 179.086 699.483 178.261 700.349C177.449 701.201 176.562 701.962 175.6 702.631C174.638 703.313 173.626 703.877 172.564 704.336C171.502 704.808 170.403 705.149 169.266 705.385C168.142 705.621 166.992 705.739 165.843 705.739C164.681 705.739 163.544 705.621 162.407 705.385C161.283 705.149 160.184 704.808 159.109 704.336C158.047 703.877 157.035 703.313 156.073 702.631C155.124 701.962 154.225 701.201 153.412 700.349C152.6 699.483 151.876 698.552 151.226 697.555C150.589 696.545 150.052 695.483 149.602 694.368C149.165 693.241 148.828 692.1 148.603 690.906C148.378 689.726 148.265 688.519 148.265 687.313C148.265 686.106 148.378 684.899 148.603 683.719C148.828 682.526 149.165 681.372 149.602 680.257C150.052 679.142 150.589 678.08 151.226 677.07C151.876 676.06 152.6 675.129 153.412 674.276C154.225 673.424 155.124 672.663 156.073 671.981C157.035 671.312 158.047 670.748 159.109 670.276C160.184 669.817 161.283 669.463 162.407 669.227C163.544 668.991 164.681 668.873 165.843 668.873C166.992 668.873 168.142 668.991 169.266 669.227C170.403 669.463 171.502 669.817 172.564 670.276C173.626 670.748 174.638 671.312 175.6 671.981C176.562 672.663 177.449 673.424 178.261 674.276C179.086 675.129 179.81 676.06 180.447 677.07C181.084 678.08 181.634 679.142 182.071 680.257C182.509 681.372 182.846 682.526 183.071 683.719C183.296 684.899 183.408 686.106 183.408 687.313Z" fill="#800BD2" fill-opacity="0.15"/>
<path d="M326.44 450.837C326.44 452.044 326.328 453.238 326.103 454.431C325.878 455.611 325.541 456.765 325.104 457.893C324.666 459.008 324.117 460.07 323.479 461.08C322.842 462.077 322.105 463.008 321.293 463.874C320.481 464.726 319.594 465.487 318.632 466.156C317.67 466.838 316.658 467.402 315.596 467.861C314.535 468.333 313.435 468.674 312.298 468.91C311.161 469.146 310.025 469.264 308.875 469.264C307.713 469.264 306.576 469.146 305.44 468.91C304.315 468.674 303.216 468.333 302.141 467.861C301.08 467.402 300.068 466.838 299.106 466.156C298.144 465.487 297.257 464.726 296.445 463.874C295.633 463.008 294.908 462.077 294.258 461.08C293.621 460.07 293.084 459.008 292.634 457.893C292.197 456.765 291.86 455.611 291.635 454.431C291.41 453.238 291.298 452.044 291.298 450.837C291.298 449.618 291.41 448.424 291.635 447.244C291.86 446.051 292.197 444.896 292.634 443.782C293.084 442.667 293.621 441.605 294.258 440.595C294.908 439.585 295.633 438.654 296.445 437.801C297.257 436.949 298.144 436.175 299.106 435.506C300.068 434.837 301.08 434.273 302.141 433.801C303.216 433.342 304.315 432.988 305.44 432.752C306.576 432.516 307.713 432.398 308.875 432.398C310.025 432.398 311.161 432.516 312.298 432.752C313.435 432.988 314.535 433.342 315.596 433.801C316.658 434.273 317.67 434.837 318.632 435.506C319.594 436.175 320.481 436.949 321.293 437.801C322.105 438.654 322.842 439.585 323.479 440.595C324.117 441.605 324.666 442.667 325.104 443.782C325.541 444.896 325.878 446.051 326.103 447.244C326.328 448.424 326.44 449.618 326.44 450.837Z" fill="#800BD2" fill-opacity="0.15"/>
<path d="M633.017 180.159C633.017 181.366 632.905 182.559 632.68 183.752C632.455 184.933 632.117 186.087 631.68 187.215C631.23 188.33 630.693 189.392 630.056 190.402C629.419 191.398 628.682 192.33 627.87 193.195C627.058 194.048 626.171 194.808 625.209 195.477C624.247 196.159 623.235 196.723 622.173 197.182C621.099 197.641 619.999 197.995 618.875 198.231C617.738 198.467 616.601 198.585 615.439 198.585C614.29 198.585 613.153 198.467 612.016 198.231C610.879 197.995 609.78 197.641 608.718 197.182C607.656 196.723 606.644 196.159 605.682 195.477C604.72 194.808 603.833 194.048 603.021 193.195C602.209 192.33 601.472 191.398 600.835 190.402C600.198 189.392 599.648 188.33 599.211 187.215C598.774 186.087 598.436 184.933 598.212 183.752C597.987 182.559 597.874 181.366 597.874 180.159C597.874 178.939 597.987 177.746 598.212 176.552C598.436 175.372 598.774 174.218 599.211 173.103C599.648 171.988 600.198 170.926 600.835 169.916C601.472 168.906 602.209 167.975 603.021 167.123C603.833 166.27 604.72 165.497 605.682 164.828C606.644 164.159 607.656 163.582 608.718 163.123C609.78 162.664 610.879 162.31 612.016 162.074C613.153 161.838 614.29 161.719 615.439 161.719C616.601 161.719 617.738 161.838 618.875 162.074C619.999 162.31 621.099 162.664 622.173 163.123C623.235 163.582 624.247 164.159 625.209 164.828C626.171 165.497 627.058 166.27 627.87 167.123C628.682 167.975 629.419 168.906 630.056 169.916C630.693 170.926 631.23 171.988 631.68 173.103C632.117 174.218 632.455 175.372 632.68 176.552C632.905 177.746 633.017 178.939 633.017 180.159Z" fill="#800BD2" fill-opacity="0.15"/>
<path d="M717.632 559.98C717.632 561.186 717.52 562.38 717.295 563.573C717.07 564.753 716.745 565.908 716.295 567.035C715.858 568.15 715.321 569.212 714.671 570.222C714.034 571.219 713.309 572.15 712.485 573.003C711.673 573.868 710.786 574.629 709.824 575.298C708.874 575.98 707.85 576.544 706.788 577.003C705.726 577.462 704.627 577.816 703.49 578.052C702.366 578.288 701.216 578.406 700.067 578.406C698.917 578.406 697.768 578.288 696.644 578.052C695.507 577.816 694.408 577.462 693.346 577.003C692.271 576.544 691.259 575.98 690.31 575.298C689.348 574.629 688.461 573.868 687.636 573.003C686.824 572.15 686.1 571.219 685.45 570.222C684.813 569.212 684.276 568.15 683.838 567.035C683.389 565.908 683.051 564.753 682.827 563.573C682.602 562.38 682.489 561.186 682.489 559.98C682.489 558.76 682.602 557.566 682.827 556.373C683.051 555.193 683.389 554.039 683.838 552.924C684.276 551.809 684.813 550.747 685.45 549.737C686.1 548.727 686.824 547.796 687.636 546.943C688.461 546.091 689.348 545.317 690.31 544.648C691.259 543.979 692.271 543.402 693.346 542.943C694.408 542.484 695.507 542.13 696.644 541.894C697.768 541.658 698.917 541.54 700.067 541.54C701.216 541.54 702.366 541.658 703.49 541.894C704.627 542.13 705.726 542.484 706.788 542.943C707.85 543.402 708.874 543.979 709.824 544.648C710.786 545.317 711.673 546.091 712.485 546.943C713.309 547.796 714.034 548.727 714.671 549.737C715.321 550.747 715.858 551.809 716.295 552.924C716.745 554.039 717.07 555.193 717.295 556.373C717.52 557.566 717.632 558.76 717.632 559.98Z" fill="#800BD2" fill-opacity="0.15"/>
<path d="M1004.31 198.586C1004.31 199.792 1004.2 200.999 1003.97 202.179C1003.75 203.373 1003.41 204.527 1002.97 205.641C1002.52 206.756 1001.98 207.818 1001.35 208.828C1000.7 209.838 999.973 210.769 999.161 211.622C998.336 212.474 997.449 213.248 996.5 213.917C995.538 214.586 994.526 215.15 993.452 215.622C992.39 216.081 991.29 216.435 990.166 216.671C989.029 216.907 987.892 217.025 986.73 217.025C985.581 217.025 984.432 216.907 983.307 216.671C982.17 216.435 981.071 216.081 980.009 215.622C978.947 215.15 977.935 214.586 976.973 213.917C976.011 213.248 975.124 212.474 974.312 211.622C973.488 210.769 972.763 209.838 972.126 208.828C971.476 207.818 970.939 206.756 970.502 205.641C970.052 204.527 969.727 203.373 969.503 202.179C969.278 200.999 969.165 199.792 969.165 198.586C969.165 197.379 969.278 196.172 969.503 194.992C969.727 193.799 970.052 192.658 970.502 191.53C970.939 190.415 971.476 189.353 972.126 188.343C972.763 187.346 973.488 186.415 974.312 185.549C975.124 184.697 976.011 183.936 976.973 183.267C977.935 182.585 978.947 182.021 980.009 181.562C981.071 181.09 982.17 180.749 983.307 180.513C984.432 180.277 985.581 180.159 986.73 180.159C987.892 180.159 989.029 180.277 990.166 180.513C991.29 180.749 992.39 181.09 993.452 181.562C994.526 182.021 995.538 182.585 996.5 183.267C997.449 183.936 998.336 184.697 999.161 185.549C999.973 186.415 1000.7 187.346 1001.35 188.343C1001.98 189.353 1002.52 190.415 1002.97 191.53C1003.41 192.658 1003.75 193.799 1003.97 194.992C1004.2 196.172 1004.31 197.379 1004.31 198.586Z" fill="#800BD2" fill-opacity="0.15"/>
<path d="M1186.03 578.406C1186.03 579.613 1185.92 580.82 1185.69 582C1185.47 583.193 1185.13 584.347 1184.69 585.462C1184.24 586.577 1183.71 587.639 1183.07 588.649C1182.42 589.659 1181.7 590.59 1180.88 591.443C1180.06 592.295 1179.17 593.056 1178.22 593.738C1177.26 594.407 1176.25 594.971 1175.17 595.443C1174.11 595.902 1173.01 596.256 1171.89 596.492C1170.75 596.728 1169.62 596.846 1168.45 596.846C1167.3 596.846 1166.15 596.728 1165.03 596.492C1163.89 596.256 1162.79 595.902 1161.73 595.443C1160.67 594.971 1159.66 594.407 1158.7 593.738C1157.73 593.056 1156.85 592.295 1156.04 591.443C1155.21 590.59 1154.49 589.659 1153.85 588.649C1153.2 587.639 1152.66 586.577 1152.22 585.462C1151.78 584.347 1151.45 583.193 1151.23 582C1151 580.82 1150.89 579.613 1150.89 578.406C1150.89 577.2 1151 575.993 1151.23 574.813C1151.45 573.619 1151.78 572.478 1152.22 571.351C1152.66 570.236 1153.2 569.174 1153.85 568.164C1154.49 567.167 1155.21 566.236 1156.04 565.37C1156.85 564.518 1157.73 563.757 1158.7 563.088C1159.66 562.406 1160.67 561.842 1161.73 561.383C1162.79 560.911 1163.89 560.57 1165.03 560.334C1166.15 560.098 1167.3 559.98 1168.45 559.98C1169.62 559.98 1170.75 560.098 1171.89 560.334C1173.01 560.57 1174.11 560.911 1175.17 561.383C1176.25 561.842 1177.26 562.406 1178.22 563.088C1179.17 563.757 1180.06 564.518 1180.88 565.37C1181.7 566.236 1182.42 567.167 1183.07 568.164C1183.71 569.174 1184.24 570.236 1184.69 571.351C1185.13 572.478 1185.47 573.619 1185.69 574.813C1185.92 575.993 1186.03 577.2 1186.03 578.406Z" fill="#800BD2" fill-opacity="0.15"/>
<path d="M527.414 404.017C527.414 405.88 527.239 407.729 526.89 409.565C526.54 411.388 526.028 413.158 525.353 414.877C524.678 416.608 523.841 418.234 522.854 419.795C521.868 421.342 520.743 422.772 519.494 424.083C518.232 425.408 516.87 426.588 515.384 427.624C513.909 428.66 512.348 429.526 510.711 430.247C509.075 430.955 507.376 431.493 505.639 431.86C503.89 432.214 502.141 432.398 500.355 432.398C498.581 432.398 496.819 432.214 495.083 431.86C493.334 431.493 491.647 430.955 490.01 430.247C488.361 429.526 486.812 428.66 485.326 427.624C483.851 426.588 482.49 425.408 481.228 424.083C479.979 422.772 478.854 421.342 477.867 419.795C476.88 418.234 476.043 416.608 475.369 414.877C474.682 413.158 474.169 411.388 473.832 409.565C473.482 407.729 473.307 405.88 473.307 404.017C473.307 402.155 473.482 400.319 473.832 398.483C474.169 396.66 474.682 394.889 475.369 393.158C476.043 391.44 476.88 389.801 477.867 388.253C478.854 386.706 479.979 385.276 481.228 383.952C482.49 382.64 483.851 381.46 485.326 380.424C486.812 379.388 488.361 378.522 490.01 377.801C491.647 377.093 493.334 376.555 495.083 376.188C496.819 375.82 498.581 375.65 500.355 375.65C502.141 375.65 503.89 375.82 505.639 376.188C507.376 376.555 509.075 377.093 510.711 377.801C512.348 378.522 513.909 379.388 515.384 380.424C516.87 381.46 518.232 382.64 519.494 383.952C520.743 385.276 521.868 386.706 522.854 388.253C523.841 389.801 524.678 391.44 525.353 393.158C526.028 394.889 526.54 396.66 526.89 398.483C527.239 400.319 527.414 402.155 527.414 404.017Z" fill="#800BD2" fill-opacity="0.15"/>
<path d="M1071.9 386.417C1071.9 387.847 1071.63 389.224 1071.11 390.548C1070.58 391.86 1069.85 393.027 1068.88 394.037C1067.92 395.047 1066.81 395.834 1065.55 396.371C1064.29 396.922 1062.98 397.198 1061.61 397.198C1060.25 397.198 1058.94 396.922 1057.69 396.371C1056.43 395.834 1055.32 395.047 1054.36 394.037C1053.39 393.027 1052.66 391.86 1052.13 390.548C1051.61 389.224 1051.34 387.847 1051.34 386.417C1051.34 384.988 1051.61 383.611 1052.13 382.299C1052.64 380.975 1053.39 379.807 1054.36 378.797C1055.32 377.788 1056.43 377.014 1057.69 376.463C1058.94 375.912 1060.25 375.65 1061.61 375.65C1062.98 375.65 1064.29 375.912 1065.55 376.463C1066.81 377.014 1067.92 377.788 1068.88 378.797C1069.85 379.807 1070.58 380.975 1071.11 382.299C1071.63 383.611 1071.9 384.988 1071.9 386.417Z" fill="#800BD2" fill-opacity="0.15"/>
<path d="M973.051 559.98C973.051 561.409 972.789 562.773 972.264 564.098C971.739 565.423 971.002 566.59 970.04 567.6C969.078 568.61 967.966 569.383 966.704 569.934C965.443 570.472 964.143 570.747 962.782 570.747C961.407 570.747 960.108 570.472 958.846 569.934C957.585 569.383 956.473 568.61 955.511 567.6C954.549 566.59 953.812 565.423 953.287 564.098C952.762 562.773 952.5 561.409 952.5 559.98C952.5 558.55 952.762 557.173 953.287 555.849C953.812 554.537 954.549 553.37 955.511 552.36C956.473 551.35 957.585 550.563 958.846 550.026C960.108 549.475 961.407 549.199 962.782 549.199C964.143 549.199 965.443 549.475 966.704 550.026C967.966 550.563 969.078 551.35 970.04 552.36C971.002 553.37 971.739 554.537 972.264 555.849C972.789 557.173 973.051 558.55 973.051 559.98Z" fill="#800BD2" fill-opacity="0.15"/>
<path d="M1206.57 756.192C1206.57 757.621 1206.31 758.998 1205.79 760.323C1205.27 761.634 1204.52 762.801 1203.56 763.811C1202.6 764.821 1201.48 765.608 1200.24 766.146C1198.97 766.697 1197.66 766.972 1196.3 766.972C1194.94 766.972 1193.63 766.697 1192.36 766.146C1191.12 765.608 1190 764.821 1189.04 763.811C1188.07 762.801 1187.33 761.634 1186.81 760.323C1186.29 758.998 1186.03 757.621 1186.03 756.192C1186.03 754.762 1186.29 753.385 1186.81 752.073C1187.33 750.749 1188.07 749.582 1189.04 748.572C1190 747.562 1191.12 746.788 1192.36 746.237C1193.63 745.687 1194.94 745.411 1196.3 745.411C1197.66 745.411 1198.97 745.687 1200.24 746.237C1201.48 746.788 1202.6 747.562 1203.56 748.572C1204.52 749.582 1205.27 750.749 1205.79 752.073C1206.31 753.385 1206.57 754.762 1206.57 756.192Z" fill="#800BD2" fill-opacity="0.15"/>
<path d="M1373.14 469.264C1373.14 470.694 1372.88 472.071 1372.36 473.396C1371.84 474.707 1371.1 475.874 1370.13 476.884C1369.17 477.894 1368.05 478.681 1366.8 479.219C1365.54 479.769 1364.23 480.045 1362.87 480.045C1361.51 480.045 1360.2 479.769 1358.93 479.219C1357.68 478.681 1356.57 477.894 1355.61 476.884C1354.65 475.874 1353.9 474.707 1353.37 473.396C1352.86 472.071 1352.6 470.694 1352.6 469.264C1352.6 467.835 1352.86 466.458 1353.37 465.146C1353.9 463.822 1354.65 462.654 1355.61 461.645C1356.57 460.635 1357.68 459.861 1358.93 459.31C1360.2 458.759 1361.51 458.497 1362.87 458.497C1364.23 458.497 1365.54 458.759 1366.8 459.31C1368.05 459.861 1369.17 460.635 1370.13 461.645C1371.1 462.654 1371.84 463.822 1372.36 465.146C1372.88 466.458 1373.14 467.835 1373.14 469.264Z" fill="#800BD2" fill-opacity="0.15"/>
<path d="M1178.72 125.339C1178.72 126.769 1178.47 128.146 1177.95 129.47C1177.42 130.782 1176.69 131.949 1175.72 132.959C1174.76 133.969 1173.65 134.756 1172.39 135.293C1171.13 135.844 1169.82 136.12 1168.45 136.12C1167.09 136.12 1165.78 135.844 1164.53 135.293C1163.27 134.756 1162.16 133.969 1161.19 132.959C1160.23 131.949 1159.48 130.782 1158.97 129.47C1158.45 128.146 1158.18 126.769 1158.18 125.339C1158.18 123.91 1158.45 122.533 1158.97 121.221C1159.48 119.897 1160.23 118.729 1161.19 117.72C1162.16 116.71 1163.27 115.936 1164.53 115.385C1165.78 114.834 1167.09 114.559 1168.45 114.559C1169.82 114.559 1171.13 114.834 1172.39 115.385C1173.65 115.936 1174.76 116.71 1175.72 117.72C1176.69 118.729 1177.42 119.897 1177.95 121.221C1178.47 122.533 1178.72 123.91 1178.72 125.339Z" fill="#800BD2" fill-opacity="0.15"/>
<path d="M798.974 125.339C798.974 126.769 798.711 128.146 798.187 129.47C797.675 130.782 796.925 131.949 795.963 132.959C795.001 133.969 793.889 134.756 792.627 135.293C791.378 135.844 790.066 136.12 788.705 136.12C787.343 136.12 786.031 135.844 784.769 135.293C783.507 134.756 782.396 133.969 781.434 132.959C780.472 131.949 779.735 130.782 779.21 129.47C778.685 128.146 778.423 126.769 778.423 125.339C778.423 123.91 778.685 122.533 779.21 121.221C779.735 119.897 780.472 118.729 781.434 117.72C782.396 116.71 783.507 115.936 784.769 115.385C786.031 114.834 787.343 114.559 788.705 114.559C790.066 114.559 791.378 114.834 792.627 115.385C793.889 115.936 795.001 116.71 795.963 117.72C796.925 118.729 797.675 119.897 798.187 121.221C798.711 122.533 798.974 123.91 798.974 125.339Z" fill="#800BD2" fill-opacity="0.15"/>
<path d="M451.345 114.559C451.345 115.988 451.082 117.365 450.558 118.69C450.046 120.014 449.296 121.168 448.334 122.178C447.372 123.201 446.26 123.975 444.998 124.526C443.749 125.064 442.437 125.339 441.076 125.339C439.714 125.339 438.402 125.064 437.14 124.526C435.879 123.975 434.767 123.201 433.805 122.178C432.843 121.168 432.106 120.014 431.581 118.69C431.056 117.365 430.806 115.988 430.806 114.559C430.806 113.142 431.056 111.765 431.581 110.441C432.106 109.116 432.843 107.949 433.805 106.939C434.767 105.929 435.879 105.155 437.14 104.604C438.402 104.067 439.714 103.791 441.076 103.791C442.437 103.791 443.749 104.067 444.998 104.604C446.26 105.155 447.372 105.929 448.334 106.939C449.296 107.949 450.046 109.116 450.558 110.441C451.082 111.765 451.345 113.142 451.345 114.559Z" fill="#800BD2" fill-opacity="0.15"/>
<path d="M126.878 180.159C126.878 181.589 126.615 182.953 126.103 184.277C125.579 185.602 124.829 186.769 123.867 187.779C122.905 188.789 121.793 189.563 120.544 190.114C119.282 190.651 117.97 190.927 116.609 190.927C115.247 190.927 113.935 190.651 112.673 190.114C111.424 189.563 110.312 188.789 109.338 187.779C108.376 186.769 107.639 185.602 107.114 184.277C106.602 182.953 106.339 181.589 106.339 180.159C106.339 178.73 106.602 177.353 107.114 176.028C107.639 174.717 108.376 173.549 109.338 172.54C110.312 171.53 111.424 170.743 112.673 170.205C113.935 169.654 115.247 169.379 116.609 169.379C117.97 169.379 119.282 169.654 120.544 170.205C121.793 170.743 122.905 171.53 123.867 172.54C124.829 173.549 125.579 174.717 126.103 176.028C126.615 177.353 126.878 178.73 126.878 180.159Z" fill="#800BD2" fill-opacity="0.15"/>
<path d="M634.104 296.265C634.104 297.55 633.991 298.823 633.754 300.082C633.504 301.341 633.154 302.573 632.692 303.754C632.217 304.947 631.643 306.075 630.956 307.137C630.281 308.213 629.506 309.196 628.644 310.101C627.77 311.019 626.833 311.832 625.809 312.541C624.797 313.262 623.722 313.865 622.585 314.351C621.448 314.849 620.287 315.216 619.087 315.465C617.888 315.714 616.664 315.846 615.439 315.846C614.215 315.846 613.003 315.714 611.804 315.465C610.605 315.216 609.43 314.849 608.306 314.351C607.169 313.865 606.095 313.262 605.07 312.541C604.058 311.832 603.109 311.019 602.247 310.101C601.385 309.196 600.61 308.213 599.923 307.137C599.248 306.075 598.674 304.947 598.199 303.754C597.737 302.573 597.375 301.341 597.137 300.082C596.9 298.823 596.787 297.55 596.787 296.265C596.787 294.98 596.9 293.708 597.137 292.449C597.375 291.19 597.737 289.957 598.199 288.777C598.674 287.583 599.248 286.455 599.923 285.393C600.61 284.317 601.385 283.334 602.247 282.416C603.109 281.511 604.058 280.698 605.07 279.99C606.095 279.268 607.169 278.665 608.306 278.18C609.43 277.681 610.605 277.314 611.804 277.065C613.003 276.816 614.215 276.685 615.439 276.685C616.664 276.685 617.888 276.816 619.087 277.065C620.287 277.314 621.448 277.681 622.585 278.18C623.722 278.665 624.797 279.268 625.809 279.99C626.833 280.698 627.77 281.511 628.644 282.416C629.506 283.334 630.281 284.317 630.956 285.393C631.643 286.455 632.217 287.583 632.692 288.777C633.154 289.957 633.504 291.19 633.754 292.449C633.991 293.708 634.104 294.98 634.104 296.265Z" fill="#800BD2" fill-opacity="0.15"/>
<path d="M1041.62 305.065C1041.62 306.351 1041.51 307.623 1041.27 308.882C1041.02 310.141 1040.68 311.374 1040.21 312.554C1039.74 313.747 1039.16 314.875 1038.49 315.938C1037.8 317.013 1037.03 317.997 1036.17 318.915C1035.29 319.82 1034.35 320.633 1033.33 321.341C1032.32 322.062 1031.24 322.666 1030.11 323.151C1028.97 323.649 1027.81 324.016 1026.61 324.266C1025.41 324.515 1024.2 324.646 1022.96 324.646C1021.74 324.646 1020.52 324.515 1019.32 324.266C1018.13 324.016 1016.95 323.649 1015.83 323.151C1014.69 322.666 1013.62 322.062 1012.6 321.341C1011.58 320.633 1010.64 319.82 1009.77 318.915C1008.91 317.997 1008.13 317.013 1007.44 315.938C1006.77 314.875 1006.19 313.747 1005.72 312.554C1005.26 311.374 1004.9 310.141 1004.66 308.882C1004.42 307.623 1004.31 306.351 1004.31 305.065C1004.31 303.78 1004.42 302.508 1004.66 301.249C1004.9 299.99 1005.26 298.757 1005.72 297.577C1006.19 296.383 1006.77 295.255 1007.44 294.193C1008.13 293.118 1008.91 292.134 1009.77 291.216C1010.64 290.311 1011.58 289.498 1012.6 288.79C1013.62 288.068 1014.69 287.465 1015.83 286.98C1016.95 286.482 1018.13 286.114 1019.32 285.865C1020.52 285.616 1021.74 285.485 1022.96 285.485C1024.2 285.485 1025.41 285.616 1026.61 285.865C1027.81 286.114 1028.97 286.482 1030.11 286.98C1031.24 287.465 1032.32 288.068 1033.33 288.79C1034.35 289.498 1035.29 290.311 1036.17 291.216C1037.03 292.134 1037.8 293.118 1038.49 294.193C1039.16 295.255 1039.74 296.383 1040.21 297.577C1040.68 298.757 1041.02 299.99 1041.27 301.249C1041.51 302.508 1041.62 303.78 1041.62 305.065Z" fill="#800BD2" fill-opacity="0.15"/>
<path d="M543.281 867.432C543.281 868.521 543.168 869.596 542.968 870.672C542.768 871.747 542.468 872.783 542.069 873.793C541.669 874.803 541.182 875.76 540.607 876.678C540.02 877.583 539.37 878.423 538.633 879.196C537.896 879.97 537.084 880.665 536.222 881.268C535.36 881.872 534.448 882.383 533.486 882.803C532.512 883.223 531.525 883.537 530.5 883.747C529.476 883.97 528.451 884.075 527.414 884.075C526.365 884.075 525.341 883.97 524.316 883.747C523.292 883.537 522.305 883.223 521.33 882.803C520.368 882.383 519.456 881.872 518.594 881.268C517.732 880.665 516.92 879.97 516.183 879.196C515.446 878.423 514.797 877.583 514.209 876.678C513.635 875.76 513.147 874.803 512.748 873.793C512.348 872.783 512.048 871.747 511.848 870.672C511.648 869.596 511.536 868.521 511.536 867.432C511.536 866.331 511.648 865.255 511.848 864.18C512.048 863.104 512.348 862.068 512.748 861.058C513.147 860.049 513.635 859.091 514.209 858.173C514.797 857.268 515.446 856.429 516.183 855.655C516.92 854.881 517.732 854.199 518.594 853.583C519.456 852.98 520.368 852.468 521.33 852.049C522.305 851.629 523.292 851.314 524.316 851.104C525.341 850.894 526.365 850.776 527.414 850.776C528.451 850.776 529.476 850.894 530.5 851.104C531.525 851.314 532.512 851.629 533.486 852.049C534.448 852.468 535.36 852.98 536.222 853.583C537.084 854.199 537.896 854.881 538.633 855.655C539.37 856.429 540.02 857.268 540.607 858.173C541.182 859.091 541.669 860.049 542.069 861.058C542.468 862.068 542.768 863.104 542.968 864.18C543.168 865.255 543.281 866.331 543.281 867.432Z" fill="#800BD2" fill-opacity="0.15"/>
<path d="M925.452 451.389C925.452 452.477 925.352 453.566 925.153 454.641C924.94 455.703 924.64 456.753 924.241 457.762C923.853 458.772 923.354 459.73 922.779 460.635C922.204 461.54 921.542 462.379 920.805 463.153C920.068 463.926 919.268 464.622 918.406 465.225C917.532 465.828 916.62 466.353 915.658 466.759C914.696 467.179 913.709 467.494 912.685 467.717C911.66 467.927 910.623 468.031 909.586 468.031C908.549 468.031 907.512 467.927 906.488 467.717C905.476 467.494 904.477 467.179 903.515 466.759C902.553 466.353 901.641 465.828 900.766 465.225C899.904 464.622 899.105 463.926 898.368 463.153C897.631 462.379 896.968 461.54 896.394 460.635C895.819 459.73 895.332 458.772 894.932 457.762C894.532 456.753 894.232 455.703 894.02 454.641C893.82 453.566 893.72 452.477 893.72 451.389C893.72 450.3 893.82 449.212 894.02 448.136C894.232 447.074 894.532 446.025 894.932 445.015C895.332 444.005 895.819 443.048 896.394 442.143C896.968 441.238 897.631 440.385 898.368 439.625C899.105 438.851 899.904 438.156 900.766 437.552C901.641 436.936 902.553 436.425 903.515 436.005C904.477 435.585 905.476 435.27 906.488 435.061C907.512 434.851 908.549 434.746 909.586 434.746C910.623 434.746 911.66 434.851 912.685 435.061C913.709 435.27 914.696 435.585 915.658 436.005C916.62 436.425 917.532 436.936 918.406 437.552C919.268 438.156 920.068 438.851 920.805 439.625C921.542 440.385 922.204 441.238 922.779 442.143C923.354 443.048 923.853 444.005 924.241 445.015C924.64 446.025 924.94 447.074 925.153 448.136C925.352 449.212 925.452 450.3 925.452 451.389Z" fill="#800BD2" fill-opacity="0.15"/>
<path d="M416.814 469.264C416.814 470.169 416.727 471.061 416.564 471.94C416.402 472.818 416.152 473.684 415.827 474.51C415.49 475.349 415.09 476.136 414.615 476.884C414.14 477.631 413.591 478.327 412.991 478.956C412.379 479.599 411.717 480.163 411.005 480.661C410.293 481.159 409.543 481.592 408.744 481.933C407.956 482.274 407.144 482.536 406.295 482.707C405.458 482.891 404.608 482.982 403.746 482.982C402.884 482.982 402.035 482.891 401.198 482.707C400.361 482.536 399.536 482.274 398.749 481.933C397.95 481.592 397.2 481.159 396.488 480.661C395.776 480.163 395.114 479.599 394.502 478.956C393.902 478.327 393.365 477.631 392.877 476.884C392.403 476.136 392.003 475.349 391.678 474.51C391.341 473.684 391.103 472.818 390.929 471.94C390.766 471.061 390.679 470.169 390.679 469.264C390.679 468.372 390.766 467.481 390.929 466.589C391.103 465.71 391.341 464.858 391.678 464.018C392.003 463.192 392.403 462.405 392.877 461.644C393.365 460.897 393.902 460.215 394.502 459.572C395.114 458.943 395.776 458.366 396.488 457.867C397.2 457.369 397.95 456.949 398.749 456.608C399.536 456.254 400.361 455.992 401.198 455.821C402.035 455.651 402.884 455.559 403.746 455.559C404.608 455.559 405.458 455.651 406.295 455.821C407.144 455.992 407.956 456.254 408.744 456.608C409.543 456.949 410.293 457.369 411.005 457.867C411.717 458.366 412.379 458.943 412.991 459.572C413.591 460.215 414.14 460.897 414.615 461.644C415.09 462.405 415.49 463.192 415.827 464.018C416.152 464.858 416.402 465.71 416.564 466.589C416.727 467.481 416.814 468.372 416.814 469.264Z" fill="#800BD2" fill-opacity="0.15"/>
<mask id="mask0_3082_2835" style="mask-type:luminance" maskUnits="userSpaceOnUse" x="1415" y="318" width="25" height="25">
<path d="M1415.39 318.718H1440V342.22H1415.39V318.718Z" fill="white"/>
</mask>
<g mask="url(#mask0_3082_2835)">
<path d="M1438.84 330.587C1438.84 332.017 1438.59 333.394 1438.06 334.718C1437.54 336.03 1436.8 337.197 1435.84 338.207C1434.87 339.217 1433.77 340.004 1432.5 340.541C1431.24 341.092 1429.93 341.368 1428.57 341.368C1427.21 341.368 1425.9 341.092 1424.63 340.541C1423.38 340.004 1422.27 339.217 1421.31 338.207C1420.35 337.197 1419.6 336.03 1419.07 334.718C1418.56 333.394 1418.3 332.017 1418.3 330.587C1418.3 329.158 1418.56 327.78 1419.07 326.469C1419.6 325.144 1420.35 323.977 1421.31 322.967C1422.27 321.957 1423.38 321.184 1424.63 320.633C1425.9 320.082 1427.21 319.807 1428.57 319.807C1429.93 319.807 1431.24 320.082 1432.5 320.633C1433.77 321.184 1434.87 321.957 1435.84 322.967C1436.8 323.977 1437.54 325.144 1438.06 326.469C1438.59 327.78 1438.84 329.158 1438.84 330.587Z" fill="#800BD2" fill-opacity="0.15"/>
</g>
<path d="M1222.52 423.965C1222.52 425.395 1222.26 426.772 1221.74 428.096C1221.21 429.408 1220.47 430.575 1219.51 431.585C1218.55 432.595 1217.44 433.382 1216.18 433.919C1214.91 434.47 1213.6 434.746 1212.24 434.746C1210.88 434.746 1209.57 434.47 1208.32 433.919C1207.06 433.382 1205.94 432.595 1204.98 431.585C1204.02 430.575 1203.27 429.408 1202.76 428.096C1202.23 426.772 1201.97 425.395 1201.97 423.965C1201.97 422.536 1202.23 421.172 1202.76 419.847C1203.27 418.522 1204.02 417.355 1204.98 416.345C1205.94 415.335 1207.06 414.562 1208.32 414.011C1209.57 413.473 1210.88 413.198 1212.24 413.198C1213.6 413.198 1214.91 413.473 1216.18 414.011C1217.44 414.562 1218.55 415.335 1219.51 416.345C1220.47 417.355 1221.21 418.522 1221.74 419.847C1222.26 421.172 1222.52 422.536 1222.52 423.965Z" fill="#800BD2" fill-opacity="0.15"/>
<path d="M1327.65 627.404C1327.65 628.833 1327.39 630.21 1326.86 631.522C1326.34 632.846 1325.6 634.014 1324.64 635.023C1323.68 636.033 1322.57 636.807 1321.3 637.358C1320.04 637.909 1318.74 638.184 1317.37 638.184C1316.01 638.184 1314.71 637.909 1313.45 637.358C1312.18 636.807 1311.07 636.033 1310.11 635.023C1309.15 634.014 1308.41 632.846 1307.89 631.522C1307.36 630.21 1307.1 628.833 1307.1 627.404C1307.1 625.974 1307.36 624.597 1307.89 623.273C1308.41 621.961 1309.15 620.794 1310.11 619.784C1311.07 618.774 1312.18 617.987 1313.45 617.45C1314.71 616.899 1316.01 616.623 1317.37 616.623C1318.74 616.623 1320.04 616.899 1321.3 617.45C1322.57 617.987 1323.68 618.774 1324.64 619.784C1325.6 620.794 1326.34 621.961 1326.86 623.273C1327.39 624.597 1327.65 625.974 1327.65 627.404Z" fill="#800BD2" fill-opacity="0.15"/>
<path d="M946.004 45.5745C946.004 47.004 945.741 48.381 945.216 49.7056C944.692 51.0171 943.955 52.1844 942.993 53.1942C942.031 54.2041 940.919 54.9909 939.657 55.5287C938.395 56.0795 937.084 56.3549 935.722 56.3549C934.36 56.3549 933.048 56.0795 931.799 55.5287C930.537 54.9909 929.425 54.2041 928.463 53.1942C927.501 52.1844 926.752 51.0171 926.24 49.7056C925.715 48.381 925.453 47.004 925.453 45.5745C925.453 44.1449 925.715 42.781 926.24 41.4564C926.752 40.1318 927.501 38.9645 928.463 37.9547C929.425 36.9449 930.537 36.1711 931.799 35.6203C933.048 35.0694 934.36 34.8071 935.722 34.8071C937.084 34.8071 938.395 35.0694 939.657 35.6203C940.919 36.1711 942.031 36.9449 942.993 37.9547C943.955 38.9645 944.692 40.1318 945.216 41.4564C945.741 42.781 946.004 44.1449 946.004 45.5745Z" fill="#800BD2" fill-opacity="0.15"/>
<path d="M1355.35 190.927C1355.35 192.356 1355.09 193.733 1354.56 195.058C1354.05 196.369 1353.3 197.536 1352.34 198.546C1351.38 199.556 1350.26 200.343 1349 200.881C1347.75 201.432 1346.44 201.707 1345.08 201.707C1343.72 201.707 1342.41 201.432 1341.14 200.881C1339.88 200.343 1338.77 199.556 1337.81 198.546C1336.85 197.536 1336.11 196.369 1335.58 195.058C1335.06 193.733 1334.8 192.356 1334.8 190.927C1334.8 189.497 1335.06 188.133 1335.58 186.808C1336.11 185.484 1336.85 184.317 1337.81 183.307C1338.77 182.297 1339.88 181.523 1341.14 180.972C1342.41 180.435 1343.72 180.159 1345.08 180.159C1346.44 180.159 1347.75 180.435 1349 180.972C1350.26 181.523 1351.38 182.297 1352.34 183.307C1353.3 184.317 1354.05 185.484 1354.56 186.808C1355.09 188.133 1355.35 189.497 1355.35 190.927Z" fill="#800BD2" fill-opacity="0.15"/>
<mask id="mask1_3082_2835" style="mask-type:luminance" maskUnits="userSpaceOnUse" x="993" y="916" width="23" height="23">
<path d="M993.227 916.337H1015.61V939H993.227V916.337Z" fill="white"/>
</mask>
<g mask="url(#mask1_3082_2835)">
<path d="M1014.58 928.233C1014.58 929.662 1014.31 931.026 1013.79 932.351C1013.28 933.675 1012.53 934.842 1011.57 935.852C1010.6 936.862 1009.49 937.636 1008.23 938.187C1006.98 938.725 1005.67 939 1004.31 939C1002.95 939 1001.63 938.725 1000.37 938.187C999.111 937.636 997.999 936.862 997.037 935.852C996.075 934.842 995.338 933.675 994.813 932.351C994.288 931.026 994.026 929.662 994.026 928.233C994.026 926.803 994.288 925.426 994.813 924.101C995.338 922.777 996.075 921.623 997.037 920.613C997.999 919.603 999.111 918.816 1000.37 918.265C1001.63 917.728 1002.95 917.452 1004.31 917.452C1005.67 917.452 1006.98 917.728 1008.23 918.265C1009.49 918.816 1010.6 919.603 1011.57 920.613C1012.53 921.623 1013.28 922.777 1013.79 924.101C1014.31 925.426 1014.58 926.803 1014.58 928.233Z" fill="#800BD2" fill-opacity="0.15"/>
</g>
<path d="M770.028 850.789C770.028 852.219 769.766 853.583 769.241 854.907C768.716 856.232 767.979 857.399 767.017 858.409C766.055 859.419 764.943 860.193 763.682 860.743C762.42 861.281 761.12 861.557 759.746 861.557C758.385 861.557 757.085 861.281 755.823 860.743C754.562 860.193 753.45 859.419 752.488 858.409C751.526 857.399 750.789 856.232 750.264 854.907C749.739 853.583 749.477 852.219 749.477 850.789C749.477 849.36 749.739 847.983 750.264 846.658C750.789 845.347 751.526 844.179 752.488 843.169C753.45 842.16 754.562 841.373 755.823 840.835C757.085 840.284 758.385 840.009 759.746 840.009C761.12 840.009 762.42 840.284 763.682 840.835C764.943 841.373 766.055 842.16 767.017 843.169C767.979 844.179 768.716 845.347 769.241 846.658C769.766 847.983 770.028 849.36 770.028 850.789Z" fill="#800BD2" fill-opacity="0.15"/>
<path d="M399.049 917.453C399.049 918.882 398.787 920.259 398.262 921.571C397.737 922.895 397 924.063 396.038 925.073C395.076 926.082 393.964 926.856 392.703 927.407C391.441 927.958 390.129 928.233 388.767 928.233C387.406 928.233 386.094 927.958 384.844 927.407C383.583 926.856 382.471 926.082 381.509 925.073C380.547 924.063 379.797 922.895 379.285 921.571C378.76 920.259 378.498 918.882 378.498 917.453C378.498 916.023 378.76 914.646 379.285 913.322C379.797 912.01 380.547 910.843 381.509 909.833C382.471 908.823 383.583 908.036 384.844 907.499C386.094 906.948 387.406 906.672 388.767 906.672C390.129 906.672 391.441 906.948 392.703 907.499C393.964 908.036 395.076 908.823 396.038 909.833C397 910.843 397.737 912.01 398.262 913.322C398.787 914.646 399.049 916.023 399.049 917.453Z" fill="#800BD2" fill-opacity="0.15"/>
<path d="M386.968 756.192C386.968 757.621 386.706 758.998 386.181 760.323C385.669 761.634 384.92 762.801 383.958 763.811C382.996 764.821 381.884 765.608 380.622 766.146C379.373 766.697 378.061 766.972 376.699 766.972C375.337 766.972 374.026 766.697 372.764 766.146C371.502 765.608 370.39 764.821 369.428 763.811C368.466 762.801 367.729 761.634 367.205 760.323C366.68 758.998 366.417 757.621 366.417 756.192C366.417 754.762 366.68 753.385 367.205 752.073C367.729 750.749 368.466 749.582 369.428 748.572C370.39 747.562 371.502 746.788 372.764 746.237C374.026 745.687 375.337 745.411 376.699 745.411C378.061 745.411 379.373 745.687 380.622 746.237C381.884 746.788 382.996 747.562 383.958 748.572C384.92 749.582 385.669 750.749 386.181 752.073C386.706 753.385 386.968 754.762 386.968 756.192Z" fill="#800BD2" fill-opacity="0.15"/>
<path d="M213.567 803.353C213.567 804.783 213.304 806.16 212.792 807.471C212.267 808.796 211.518 809.963 210.556 810.973C209.594 811.983 208.482 812.757 207.233 813.307C205.971 813.858 204.659 814.134 203.297 814.134C201.936 814.134 200.624 813.858 199.362 813.307C198.1 812.757 197.001 811.983 196.026 810.973C195.064 809.963 194.327 808.796 193.803 807.471C193.29 806.16 193.028 804.783 193.028 803.353C193.028 801.924 193.29 800.547 193.803 799.222C194.327 797.911 195.064 796.743 196.026 795.733C197.001 794.724 198.1 793.937 199.362 793.399C200.624 792.848 201.936 792.573 203.297 792.573C204.659 792.573 205.971 792.848 207.233 793.399C208.482 793.937 209.594 794.724 210.556 795.733C211.518 796.743 212.267 797.911 212.792 799.222C213.304 800.547 213.567 801.924 213.567 803.353Z" fill="#800BD2" fill-opacity="0.15"/>
<path d="M254.718 96.9716C254.718 98.388 254.456 99.7651 253.931 101.09C253.406 102.414 252.669 103.568 251.707 104.591C250.745 105.601 249.633 106.375 248.371 106.926C247.11 107.464 245.798 107.739 244.436 107.739C243.074 107.739 241.763 107.464 240.513 106.926C239.252 106.375 238.14 105.601 237.178 104.591C236.216 103.568 235.466 102.414 234.954 101.09C234.429 99.7651 234.167 98.388 234.167 96.9716C234.167 95.5421 234.429 94.165 234.954 92.8404C235.466 91.5158 236.216 90.3617 237.178 89.3519C238.14 88.3289 239.252 87.5551 240.513 87.0043C241.763 86.4666 243.074 86.1912 244.436 86.1912C245.798 86.1912 247.11 86.4666 248.371 87.0043C249.633 87.5551 250.745 88.3289 251.707 89.3519C252.669 90.3617 253.406 91.5158 253.931 92.8404C254.456 94.165 254.718 95.5421 254.718 96.9716Z" fill="#800BD2" fill-opacity="0.15"/>
<path d="M692.771 22.0202C692.771 23.4497 692.509 24.8268 691.984 26.1383C691.459 27.4629 690.722 28.6301 689.76 29.6399C688.798 30.6498 687.687 31.4236 686.425 31.9744C685.163 32.5252 683.864 32.7875 682.489 32.7875C681.128 32.7875 679.828 32.5252 678.567 31.9744C677.305 31.4236 676.193 30.6498 675.231 29.6399C674.269 28.6301 673.532 27.4629 673.007 26.1383C672.483 24.8268 672.22 23.4497 672.22 22.0202C672.22 20.5907 672.483 19.2136 673.007 17.889C673.532 16.5775 674.269 15.4103 675.231 14.4004C676.193 13.3906 677.305 12.6037 678.567 12.066C679.828 11.5152 681.128 11.2397 682.489 11.2397C683.864 11.2397 685.163 11.5152 686.425 12.066C687.687 12.6037 688.798 13.3906 689.76 14.4004C690.722 15.4103 691.459 16.5775 691.984 17.889C692.509 19.2136 692.771 20.5907 692.771 22.0202Z" fill="#800BD2" fill-opacity="0.15"/>
<path d="M780.297 679.653C780.297 681.083 780.035 682.46 779.51 683.772C778.998 685.096 778.248 686.263 777.286 687.273C776.324 688.283 775.212 689.057 773.951 689.608C772.701 690.159 771.39 690.434 770.028 690.434C768.666 690.434 767.354 690.159 766.093 689.608C764.831 689.057 763.719 688.283 762.757 687.273C761.795 686.263 761.058 685.096 760.533 683.772C760.008 682.46 759.746 681.083 759.746 679.653C759.746 678.224 760.008 676.847 760.533 675.535C761.058 674.211 761.795 673.044 762.757 672.034C763.719 671.024 764.831 670.25 766.093 669.699C767.354 669.148 768.666 668.873 770.028 668.873C771.39 668.873 772.701 669.148 773.951 669.699C775.212 670.25 776.324 671.024 777.286 672.034C778.248 673.044 778.998 674.211 779.51 675.535C780.035 676.847 780.297 678.224 780.297 679.653Z" fill="#800BD2" fill-opacity="0.15"/>
<path d="M313.447 578.406C313.447 579.835 313.185 581.213 312.66 582.537C312.148 583.849 311.398 585.016 310.436 586.026C309.474 587.036 308.363 587.822 307.101 588.36C305.851 588.911 304.54 589.186 303.178 589.186C301.816 589.186 300.504 588.911 299.243 588.36C297.981 587.822 296.869 587.036 295.907 586.026C294.945 585.016 294.208 583.849 293.683 582.537C293.159 581.213 292.896 579.835 292.896 578.406C292.896 576.976 293.159 575.599 293.683 574.288C294.208 572.963 294.945 571.796 295.907 570.786C296.869 569.776 297.981 569.003 299.243 568.452C300.504 567.901 301.816 567.625 303.178 567.625C304.54 567.625 305.851 567.901 307.101 568.452C308.363 569.003 309.474 569.776 310.436 570.786C311.398 571.796 312.148 572.963 312.66 574.288C313.185 575.599 313.447 576.976 313.447 578.406Z" fill="#800BD2" fill-opacity="0.15"/>
<path d="M176.112 432.398C176.112 433.827 175.85 435.204 175.325 436.516C174.813 437.841 174.064 439.008 173.102 440.018C172.14 441.027 171.028 441.801 169.766 442.352C168.517 442.903 167.205 443.178 165.843 443.178C164.481 443.178 163.17 442.903 161.908 442.352C160.646 441.801 159.534 441.027 158.572 440.018C157.61 439.008 156.873 437.841 156.349 436.516C155.824 435.204 155.562 433.827 155.562 432.398C155.562 430.968 155.824 429.591 156.349 428.28C156.873 426.955 157.61 425.788 158.572 424.778C159.534 423.768 160.646 422.994 161.908 422.444C163.17 421.893 164.481 421.617 165.843 421.617C167.205 421.617 168.517 421.893 169.766 422.444C171.028 422.994 172.14 423.768 173.102 424.778C174.064 425.788 174.813 426.955 175.325 428.28C175.85 429.591 176.112 430.968 176.112 432.398Z" fill="#800BD2" fill-opacity="0.15"/>
<path d="M291.298 341.367C291.298 342.797 291.035 344.174 290.523 345.485C289.998 346.81 289.249 347.977 288.287 348.987C287.325 349.997 286.213 350.771 284.964 351.322C283.702 351.872 282.39 352.135 281.028 352.135C279.667 352.135 278.355 351.872 277.093 351.322C275.844 350.771 274.732 349.997 273.758 348.987C272.796 347.977 272.059 346.81 271.534 345.485C271.022 344.174 270.759 342.797 270.759 341.367C270.759 339.938 271.022 338.561 271.534 337.236C272.059 335.925 272.796 334.757 273.758 333.748C274.732 332.738 275.844 331.951 277.093 331.413C278.355 330.862 279.667 330.587 281.028 330.587C282.39 330.587 283.702 330.862 284.964 331.413C286.213 331.951 287.325 332.738 288.287 333.748C289.249 334.757 289.998 335.925 290.523 337.236C291.035 338.561 291.298 339.938 291.298 341.367Z" fill="#800BD2" fill-opacity="0.15"/>
<path d="M510.636 296.265C510.636 297.695 510.374 299.072 509.849 300.383C509.324 301.708 508.587 302.875 507.625 303.885C506.663 304.895 505.551 305.669 504.289 306.22C503.028 306.77 501.716 307.046 500.354 307.046C498.992 307.046 497.681 306.77 496.431 306.22C495.17 305.669 494.058 304.895 493.096 303.885C492.134 302.875 491.384 301.708 490.872 300.383C490.347 299.072 490.085 297.695 490.085 296.265C490.085 294.836 490.347 293.459 490.872 292.134C491.384 290.823 492.134 289.655 493.096 288.646C494.058 287.636 495.17 286.862 496.431 286.311C497.681 285.76 498.992 285.485 500.354 285.485C501.716 285.485 503.028 285.76 504.289 286.311C505.551 286.862 506.663 287.636 507.625 288.646C508.587 289.655 509.324 290.823 509.849 292.134C510.374 293.459 510.636 294.836 510.636 296.265Z" fill="#800BD2" fill-opacity="0.15"/>
<path d="M643.286 480.044C643.286 481.474 643.024 482.851 642.512 484.162C641.987 485.487 641.238 486.654 640.276 487.664C639.314 488.674 638.202 489.448 636.953 489.999C635.691 490.549 634.379 490.825 633.017 490.825C631.656 490.825 630.344 490.549 629.082 489.999C627.82 489.448 626.721 488.674 625.746 487.664C624.784 486.654 624.047 485.487 623.523 484.162C623.01 482.851 622.748 481.474 622.748 480.044C622.748 478.615 623.01 477.238 623.523 475.913C624.047 474.602 624.784 473.434 625.746 472.425C626.721 471.415 627.82 470.628 629.082 470.09C630.344 469.539 631.656 469.264 633.017 469.264C634.379 469.264 635.691 469.539 636.953 470.09C638.202 470.628 639.314 471.415 640.276 472.425C641.238 473.434 641.987 474.602 642.512 475.913C643.024 477.238 643.286 478.615 643.286 480.044Z" fill="#800BD2" fill-opacity="0.15"/>
<path d="M99.0309 511.573C99.0309 513.002 98.781 514.38 98.2563 515.691C97.7316 517.016 96.9945 518.183 96.0325 519.193C95.0706 520.203 93.9587 520.976 92.6969 521.527C91.4351 522.078 90.1234 522.353 88.7616 522.353C87.3999 522.353 86.0882 522.078 84.8389 521.527C83.5771 520.976 82.4652 520.203 81.5032 519.193C80.5413 518.183 79.7917 517.016 79.2795 515.691C78.7548 514.38 78.4924 513.002 78.4924 511.573C78.4924 510.143 78.7548 508.766 79.2795 507.455C79.7917 506.13 80.5413 504.963 81.5032 503.953C82.4652 502.943 83.5771 502.17 84.8389 501.619C86.0882 501.068 87.3999 500.792 88.7616 500.792C90.1234 500.792 91.4351 501.068 92.6969 501.619C93.9587 502.17 95.0706 502.943 96.0325 503.953C96.9945 504.963 97.7316 506.13 98.2563 507.455C98.781 508.766 99.0309 510.143 99.0309 511.573Z" fill="#800BD2" fill-opacity="0.15"/>
<path d="M953.437 793.805L952.338 793.621L575.725 728.742L575.575 728.047L545.093 581.475L403.26 600.163L400.449 595.783L391.254 613.003L390.867 613.134L165.894 688.4L165.631 688.348L-17.8153 648.702L-136.061 330.718L-158.648 123.044L106.877 329.708L307.277 448.673L279.942 341.236L329.951 246.665L500.718 402.955L501.092 402.929L507.514 390.889L509.912 402.456L769.204 388.384L769.978 390.05L771.128 387.283L758.897 387.479L758.86 385.368L772.015 385.158L772.614 383.742L772.777 383.584L986.494 189.759L987.019 189.93L1258.84 275.99L1258.54 276.999L1169.34 579.009L1169.14 579.193L953.962 784.611L953.437 793.805ZM577.412 726.893L951.564 791.339L951.888 785.647L951.601 785.031L770.078 395.073L700.755 560.95L700.193 561.029L547.104 581.199L577.412 726.893ZM966.568 560.294L954.137 781.582L1167.58 577.829L1256.32 277.393L986.969 192.12L774.276 385.027L774.238 385.119L1067.24 380.384L966.568 560.294ZM771.14 392.529L952.126 781.346L964.581 559.665L964.706 559.442L1063.68 382.548L773.339 387.243L771.14 392.529ZM-16.3286 646.852L165.781 686.223L389.893 611.246L399.187 593.803L308.164 451.624L105.79 331.479L105.74 331.439L-156.112 127.647L-134.062 330.338L-16.3286 646.852ZM401.561 593.698L404.234 597.895L544.655 579.389L508.313 404.647L502.304 404.975L401.561 593.698ZM309.8 450.391L400.299 591.731L499.955 405.053L499.693 404.817L330.501 249.97L282.103 341.512L309.8 450.391ZM510.35 404.542L546.667 579.127L699.368 558.996L768.916 392.581L767.979 390.561L510.35 404.542ZM506.677 396.778L503.466 402.797L507.876 402.561L506.677 396.778Z" fill="#800BD2" fill-opacity="0.15"/>
<path d="M-135.637 342.194L-134.462 340.462L92.9345 511.822L91.7602 513.54L-135.637 342.194Z" fill="#800BD2" fill-opacity="0.15"/>
<path d="M116.346 181.182L116.896 179.149L330.501 242.219L329.963 244.251L116.346 181.182Z" fill="#800BD2" fill-opacity="0.15"/>
<path d="M337.234 243.897L335.697 242.533L440.476 113.667L440.726 113.575L686.4 21.0229L687.087 23.0164L441.663 115.463L337.234 243.897Z" fill="#800BD2" fill-opacity="0.15"/>
<path d="M336.247 247.242L615.215 179.084L615.677 181.156L336.697 249.301L336.247 247.242Z" fill="#800BD2" fill-opacity="0.15"/>
<path d="M769.041 392.516L787.768 125.3L789.779 125.457L771.052 392.66L769.041 392.516Z" fill="#800BD2" fill-opacity="0.15"/>
<path d="M986.73 190.927L1171.58 125.339Z" fill="#800BD2" fill-opacity="0.15"/>
<path d="M1167.44 578.655L1169.44 578.314L1197.27 760.231L1195.28 760.559L1167.44 578.655Z" fill="#800BD2" fill-opacity="0.15"/>
<path d="M441.675 111.896L441.001 111.844L244.374 98.0207L244.511 95.9092L440.464 109.68L492.322 0L494.133 0.931157L441.675 111.896Z" fill="#800BD2" fill-opacity="0.15"/>
<path d="M-212.182 700.453L-212.769 698.42L-17.6414 635.941L87.7992 511.14L105.214 342.416H-134.713L-258.156 441.552L-258.306 441.604L-390.394 491.808L-391.081 489.828L-259.143 439.676L-135.4 340.305H107.463L90.1104 508.399L91.0473 507.297L92.0468 509.566L311.036 449.145L169.878 690.892L90.9349 512.071L89.3358 512.503L-16.5046 637.79L-16.7794 637.869L-212.182 700.453ZM92.9088 511.52L170.128 686.42L306.701 452.516L92.9088 511.52Z" fill="#800BD2" fill-opacity="0.15"/>
<path d="M164.868 687.64L166.78 686.971L204.246 806.789L202.322 807.445L164.868 687.64Z" fill="#800BD2" fill-opacity="0.15"/>
<path d="M387.293 918.449L386.656 916.443L529.201 866.593L576.037 726.198L577.111 726.92L760.296 849.898L759.209 851.668L577.099 729.425L530.775 868.272L530.3 868.429L387.293 918.449Z" fill="#800BD2" fill-opacity="0.15"/>
<path d="M950.164 782.002L952.05 781.254L1005.23 927.879L1003.35 928.626L950.164 782.002Z" fill="#800BD2" fill-opacity="0.15"/>
<path d="M1163.89 576.033L1164.49 574.013L1317.69 624.453L1317.09 626.473L1163.89 576.033Z" fill="#800BD2" fill-opacity="0.15"/>
<path d="M1365 470.982L1061.35 382.548L1061.89 380.515L1360.73 467.546L1249.13 268.291L1432.68 329.577L1432.07 331.597L1253.54 271.99L1365 470.982Z" fill="#800BD2" fill-opacity="0.15"/>
<path d="M1251.33 276.685L1345.08 190.927Z" fill="#800BD2" fill-opacity="0.15"/>
<path d="M934.772 45.9282L936.671 45.22L987.68 198.231L985.781 198.926L934.772 45.9282Z" fill="#800BD2" fill-opacity="0.15"/>
<path d="M952.363 787.3L768.591 680.033L769.178 679.076L908.75 454.982L1020.14 307.111L768.466 390.614L768.079 390.378L615.178 297.328H501.367V405.408L281.241 342.522L168.442 431.664L309.924 449.906L304.228 577.541L407.707 598.183L377.686 756.401L375.712 755.982L405.333 599.862L302.129 579.272L307.813 451.769L163.245 433.132L280.816 340.213L499.355 402.64V295.203H615.715L615.952 295.347L768.704 388.319L1025.8 303.02L910.374 456.215L771.464 679.286L953.349 785.451L952.363 787.3Z" fill="#800BD2" fill-opacity="0.15"/>
<path d="M773.051 680.217L703.74 563.547L632.38 480.884L500.405 405.25L404.758 469.854L403.821 589.2L401.81 589.174L402.747 468.687L403.197 468.372L500.317 402.798L500.842 403.086L633.654 479.205L633.767 479.336L705.352 562.275L774.762 679.089L773.051 680.217Z" fill="#800BD2" fill-opacity="0.15"/>
<path d="M91.4724 509.972L90.0857 508.438L164.531 435.152L105.502 341.957L107.176 340.777L167.155 435.467L166.53 436.083L91.4724 509.972Z" fill="#800BD2" fill-opacity="0.15"/>
</g>
</g>
<defs>
<filter id="filter0_f_3082_2835" x="-409.5" y="-8.5" width="1858" height="956" filterUnits="userSpaceOnUse" color-interpolation-filters="sRGB">
<feFlood flood-opacity="0" result="BackgroundImageFix"/>
<feBlend mode="normal" in="SourceGraphic" in2="BackgroundImageFix" result="shape"/>
<feGaussianBlur stdDeviation="4.25" result="effect1_foregroundBlur_3082_2835"/>
</filter>
<clipPath id="clip0_3082_2835">
<rect width="1440" height="940" fill="white"/>
</clipPath>
</defs>
</svg>
